<?xml version="1.0" encoding="UTF-8"?>
<!-- Generator: Adobe Illustrator 19.1.0, SVG Export Plug-In . SVG Version: 6.00 Build 0)  -->
<svg xmlns="http://www.w3.org/2000/svg" xmlns:xlink="http://www.w3.org/1999/xlink" xmlns:dc="http://purl.org/dc/elements/1.1/" xmlns:cc="http://creativecommons.org/ns#" xmlns:rdf="http://www.w3.org/1999/02/22-rdf-syntax-ns#" version="1.1" id="DESIGNS" x="0px" y="0px" width="32px" height="32px" viewBox="0 0 32 32" style="enable-background:new 0 0 32 32;" xml:space="preserve">
<title property="dc:title">to believe</title><desc property="dc:description">An icon for "believe" from the Flat Shadows series on to [icon]. Downloaded from http://www.toicon.com/icons/flat-shadows_believe by 121.75.17.162 on 2019-07-16. Licensed CC-BY, see http://toicon.com/license/ for details.</desc>
<g>
	<path class="flatshadows_een" d="M26.414,7.586c-0.781-0.781-2.047-0.781-2.828,0c-0.425,0.425-0.856,1.693-1.162,2.762   C21.389,9.511,20.085,9,18.664,9h-5.329c-1.421,0-2.725,0.511-3.76,1.348C9.27,9.279,8.839,8.011,8.414,7.586   c-0.781-0.781-2.047-0.781-2.828,0c-0.781,0.781-0.781,2.047,0,2.828c0.434,0.434,1.751,0.876,2.834,1.182   c-0.544,0.785-0.925,1.696-1.043,2.702L6,26h20l-1.377-11.701c-0.118-1.007-0.499-1.918-1.043-2.702   c1.083-0.307,2.399-0.748,2.834-1.182C27.195,9.633,27.195,8.367,26.414,7.586z" style="fill: #FDFFFF;"/>
	<path class="flatshadows_twee" d="M26,26c0,3.314-2.686,6-6,6h-8c-3.314,0-6-2.686-6-6s2.686-6,6-6h8C23.314,20,26,22.686,26,26z    M7.476,13.832C8.467,14.557,9.678,15,11,15c2.088,0,3.925-1.068,5-2.686C17.075,13.932,18.912,15,21,15   c1.322,0,2.533-0.443,3.524-1.168C23.97,11.051,21.545,9,18.664,9h-5.329C10.455,9,8.03,11.051,7.476,13.832z" style="fill: #E1E5E5;"/>
	<path class="flatshadows_vijf" d="M12,17c0.552,0,1,0.448,1,1s-0.448,1-1,1c-0.552,0-1-0.448-1-1S11.448,17,12,17z M19,18   c0,0.552,0.448,1,1,1s1-0.448,1-1s-0.448-1-1-1S19,17.448,19,18z" style="fill: #8D9999;"/>
	<path class="flatshadows_drie" d="M14,24c0.552,0,1,0.448,1,1s-0.448,1-1,1s-1-0.448-1-1S13.448,24,14,24z M17,25   c0,0.552,0.448,1,1,1s1-0.448,1-1s-0.448-1-1-1S17,24.448,17,25z" style="fill: #C4CCCC;"/>
	<polygon class="flatshadows_een" points="14.083,11 16,0 17.917,11  " style="fill: #FDFFFF;"/>
</g>
<metadata><work rdf:about=""><format>image/svg+xml</format><type rdf:resource="http://purl.org/dc/dcmitype/StillImage"/><license rdf:resource="http://creativecommons.org/licenses/by/4.0/"/><attributionname>Shannon E Thomas</attributionname><attributionurl>http://www.toicon.com/icons/flat-shadows_believe</attributionurl></work></metadata></svg>
