<?xml version="1.0" encoding="UTF-8"?>
<!-- Generator: Adobe Illustrator 19.1.0, SVG Export Plug-In . SVG Version: 6.00 Build 0)  -->
<svg xmlns="http://www.w3.org/2000/svg" xmlns:xlink="http://www.w3.org/1999/xlink" xmlns:dc="http://purl.org/dc/elements/1.1/" xmlns:cc="http://creativecommons.org/ns#" xmlns:rdf="http://www.w3.org/1999/02/22-rdf-syntax-ns#" version="1.1" id="DESIGNS" x="0px" y="0px" width="32px" height="32px" viewBox="0 0 32 32" style="enable-background:new 0 0 32 32;" xml:space="preserve">
<title property="dc:title">to fight</title><desc property="dc:description">An icon for "fight" from the Flat Shadows series on to [icon]. Downloaded from http://www.toicon.com/icons/flat-shadows_fight by 121.75.17.162 on 2019-07-16. Licensed CC-BY, see http://toicon.com/license/ for details.</desc>
<g>
	<polygon class="flatshadows_drie" points="29,2 26,2 7,20 11,24 29,5  " style="fill: #C4CCCC;"/>
	<polygon class="flatshadows_vier" points="29,2 9,22 11,24 29,5  " style="fill: #A3AFAF;"/>
	
		<rect x="4.257" y="21.793" transform="matrix(-0.7071 -0.7071 0.7071 -0.7071 -1.3995 44.4203)" class="flatshadows_drie" width="8.485" height="1.414" style="fill: #C4CCCC;"/>
	
		<rect x="-0.743" y="26.793" transform="matrix(-0.7071 -0.7071 0.7071 -0.7071 -13.4706 49.4203)" class="flatshadows_drie" width="8.485" height="1.414" style="fill: #C4CCCC;"/>
	
		<rect x="3.172" y="22.879" transform="matrix(0.7071 -0.7071 0.7071 0.7071 -15.9203 11.565)" class="flatshadows_vier" width="5.657" height="4.243" style="fill: #A3AFAF;"/>
	<polygon class="flatshadows_twee" points="3,2 3,5 21,24 25,20 6,2  " style="fill: #E1E5E5;"/>
	
		<rect x="19.257" y="21.793" transform="matrix(-0.7071 0.7071 -0.7071 -0.7071 56.0269 21.7929)" class="flatshadows_twee" width="8.485" height="1.414" style="fill: #E1E5E5;"/>
	
		<rect x="24.257" y="26.793" transform="matrix(-0.7071 0.7071 -0.7071 -0.7071 68.098 26.7929)" class="flatshadows_twee" width="8.485" height="1.414" style="fill: #E1E5E5;"/>
	<polygon class="flatshadows_een" points="3,2 23,22 25,20 6,2  " style="fill: #FDFFFF;"/>
	
		<rect x="23.172" y="22.879" transform="matrix(-0.7071 -0.7071 0.7071 -0.7071 26.7071 61.0624)" class="flatshadows_drie" width="5.657" height="4.243" style="fill: #C4CCCC;"/>
	<polygon class="flatshadows_vijf" points="9.5,24.5 6.5,21.5 6.5,27.5  " style="fill: #8D9999;"/>
	<polygon class="flatshadows_vier" points="25.5,21.5 22.5,24.5 25.5,27.5  " style="fill: #A3AFAF;"/>
	<polygon class="flatshadows_vijf" points="12.381,22.542 16,18.722 14.189,16.811 12.381,18.619  " style="fill: #8D9999;"/>
	<g>
		<g>
			<polygon class="flatshadows_vier" points="14.189,16.811 12.381,14.902 12.381,18.619    " style="fill: #A3AFAF;"/>
			<rect x="14.191" y="18.001" class="flatshadows_vier" width="0" height="5.262" style="fill: #A3AFAF;"/>
		</g>
		<g>
			<polygon class="flatshadows_vier" points="14.189,16.811 12.381,14.902 12.381,18.619    " style="fill: #A3AFAF;"/>
			<rect x="14.191" y="18.001" class="flatshadows_vier" width="0" height="5.262" style="fill: #A3AFAF;"/>
		</g>
	</g>
</g>
<metadata><work rdf:about=""><format>image/svg+xml</format><type rdf:resource="http://purl.org/dc/dcmitype/StillImage"/><license rdf:resource="http://creativecommons.org/licenses/by/4.0/"/><attributionname>Shannon E Thomas</attributionname><attributionurl>http://www.toicon.com/icons/flat-shadows_fight</attributionurl></work></metadata></svg>
