<?xml version="1.0" encoding="UTF-8"?>
<!-- Generator: Adobe Illustrator 19.1.0, SVG Export Plug-In . SVG Version: 6.00 Build 0)  -->
<svg xmlns="http://www.w3.org/2000/svg" xmlns:xlink="http://www.w3.org/1999/xlink" xmlns:dc="http://purl.org/dc/elements/1.1/" xmlns:cc="http://creativecommons.org/ns#" xmlns:rdf="http://www.w3.org/1999/02/22-rdf-syntax-ns#" version="1.1" id="DESIGNS" x="0px" y="0px" width="32px" height="32px" viewBox="0 0 32 32" style="enable-background:new 0 0 32 32;" xml:space="preserve">
<title property="dc:title">to mill</title><desc property="dc:description">An icon for "mill" from the Flat Shadows series on to [icon]. Downloaded from http://www.toicon.com/icons/flat-shadows_mill by 121.75.17.162 on 2019-07-16. Licensed CC-BY, see http://toicon.com/license/ for details.</desc>
<g>
	<polygon class="flatshadows_twee" points="26,32 6,32 8,13 16,5 24,13  " style="fill: #E1E5E5;"/>
	<polygon class="flatshadows_drie" points="17.615,32 26,32 24,13 20.914,9.914 8.222,22.607  " style="fill: #C4CCCC;"/>
	<polygon class="flatshadows_een" points="26.607,4.222 23.778,1.393 16,9.172 8.222,1.393 5.393,4.222 13.172,12 5.393,19.778    8.222,22.607 16,14.828 23.778,22.607 26.607,19.778 18.828,12  " style="fill: #FDFFFF;"/>
	<path class="flatshadows_vijf" d="M18,12c0,1.105-0.895,2-2,2s-2-0.895-2-2s0.895-2,2-2S18,10.895,18,12z M14,26v2.385L17.615,32   H18v-6H14z" style="fill: #8D9999;"/>
	<polygon class="flatshadows_vier" points="14,32 17.615,32 14,28.385  " style="fill: #A3AFAF;"/>
</g>
<metadata><work rdf:about=""><format>image/svg+xml</format><type rdf:resource="http://purl.org/dc/dcmitype/StillImage"/><license rdf:resource="http://creativecommons.org/licenses/by/4.0/"/><attributionname>Shannon E Thomas</attributionname><attributionurl>http://www.toicon.com/icons/flat-shadows_mill</attributionurl></work></metadata></svg>
