<?xml version="1.0" encoding="UTF-8"?>
<!-- Generator: Adobe Illustrator 19.1.0, SVG Export Plug-In . SVG Version: 6.00 Build 0)  -->
<svg xmlns="http://www.w3.org/2000/svg" xmlns:xlink="http://www.w3.org/1999/xlink" xmlns:dc="http://purl.org/dc/elements/1.1/" xmlns:cc="http://creativecommons.org/ns#" xmlns:rdf="http://www.w3.org/1999/02/22-rdf-syntax-ns#" version="1.1" id="DESIGNS" x="0px" y="0px" width="32px" height="32px" viewBox="0 0 32 32" style="enable-background:new 0 0 32 32;" xml:space="preserve">
<title property="dc:title">to guide</title><desc property="dc:description">An icon for "guide" from the Flat Shadows series on to [icon]. Downloaded from http://www.toicon.com/icons/flat-shadows_guide by 121.75.17.162 on 2019-07-16. Licensed CC-BY, see http://toicon.com/license/ for details.</desc>
<g>
	<rect x="8" y="4" class="flatshadows_twee" width="22" height="28" style="fill: #E1E5E5;"/>
	<polygon class="flatshadows_drie" points="8,4 8,32 24,28 24,0  " style="fill: #C4CCCC;"/>
	<rect x="2" class="flatshadows_een" width="22" height="28" style="fill: #FDFFFF;"/>
	<g>
		<g>
			<rect x="26" y="19" class="flatshadows_vijf" width="2" height="2" style="fill: #8D9999;"/>
			<rect x="29" y="19" class="flatshadows_vijf" width="1" height="2" style="fill: #8D9999;"/>
			<rect x="24" y="19" class="flatshadows_vijf" width="1" height="2" style="fill: #8D9999;"/>
		</g>
		<g>
			<rect x="26" y="19" class="flatshadows_vijf" width="2" height="2" style="fill: #8D9999;"/>
			<rect x="29" y="19" class="flatshadows_vijf" width="1" height="2" style="fill: #8D9999;"/>
			<rect x="24" y="19" class="flatshadows_vijf" width="1" height="2" style="fill: #8D9999;"/>
		</g>
	</g>
	<g>
		<g>
			<rect x="4" y="7" class="flatshadows_vier" width="2" height="2" style="fill: #A3AFAF;"/>
			<rect x="7" y="7" class="flatshadows_vier" width="2" height="2" style="fill: #A3AFAF;"/>
			<rect x="13" y="7" class="flatshadows_vier" width="2" height="2" style="fill: #A3AFAF;"/>
			<rect x="16" y="7" class="flatshadows_vier" width="2" height="2" style="fill: #A3AFAF;"/>
			<rect x="16" y="10" class="flatshadows_vier" width="2" height="2" style="fill: #A3AFAF;"/>
			<rect x="16" y="13" class="flatshadows_vier" width="2" height="2" style="fill: #A3AFAF;"/>
			<rect x="16" y="16" class="flatshadows_vier" width="2" height="2" style="fill: #A3AFAF;"/>
			<rect x="19" y="16" class="flatshadows_vier" width="2" height="2" style="fill: #A3AFAF;"/>
			<rect x="22" y="16" class="flatshadows_vier" width="2" height="2" style="fill: #A3AFAF;"/>
			<rect x="2" y="7" class="flatshadows_vier" width="1" height="2" style="fill: #A3AFAF;"/>
			<rect x="10" y="7" class="flatshadows_vier" width="2" height="2" style="fill: #A3AFAF;"/>
		</g>
		<g>
			<rect x="4" y="7" class="flatshadows_vier" width="2" height="2" style="fill: #A3AFAF;"/>
			<rect x="7" y="7" class="flatshadows_vier" width="2" height="2" style="fill: #A3AFAF;"/>
			<rect x="13" y="7" class="flatshadows_vier" width="2" height="2" style="fill: #A3AFAF;"/>
			<rect x="16" y="7" class="flatshadows_vier" width="2" height="2" style="fill: #A3AFAF;"/>
			<rect x="16" y="10" class="flatshadows_vier" width="2" height="2" style="fill: #A3AFAF;"/>
			<rect x="16" y="13" class="flatshadows_vier" width="2" height="2" style="fill: #A3AFAF;"/>
			<rect x="16" y="16" class="flatshadows_vier" width="2" height="2" style="fill: #A3AFAF;"/>
			<rect x="19" y="16" class="flatshadows_vier" width="2" height="2" style="fill: #A3AFAF;"/>
			<rect x="22" y="16" class="flatshadows_vier" width="2" height="2" style="fill: #A3AFAF;"/>
			<rect x="2" y="7" class="flatshadows_vier" width="1" height="2" style="fill: #A3AFAF;"/>
			<rect x="10" y="7" class="flatshadows_vier" width="2" height="2" style="fill: #A3AFAF;"/>
		</g>
	</g>
</g>
<metadata><work rdf:about=""><format>image/svg+xml</format><type rdf:resource="http://purl.org/dc/dcmitype/StillImage"/><license rdf:resource="http://creativecommons.org/licenses/by/4.0/"/><attributionname>Shannon E Thomas</attributionname><attributionurl>http://www.toicon.com/icons/flat-shadows_guide</attributionurl></work></metadata></svg>
