<?xml version="1.0" encoding="UTF-8"?>
<!-- Generator: Adobe Illustrator 19.1.0, SVG Export Plug-In . SVG Version: 6.00 Build 0)  -->
<svg xmlns="http://www.w3.org/2000/svg" xmlns:xlink="http://www.w3.org/1999/xlink" xmlns:dc="http://purl.org/dc/elements/1.1/" xmlns:cc="http://creativecommons.org/ns#" xmlns:rdf="http://www.w3.org/1999/02/22-rdf-syntax-ns#" version="1.1" id="DESIGNS" x="0px" y="0px" width="32px" height="32px" viewBox="0 0 32 32" style="enable-background:new 0 0 32 32;" xml:space="preserve">
<title property="dc:title">to disappear</title><desc property="dc:description">An icon for "disappear" from the Flat Shadows series on to [icon]. Downloaded from http://www.toicon.com/icons/flat-shadows_disappear by 121.75.17.162 on 2019-07-16. Licensed CC-BY, see http://toicon.com/license/ for details.</desc>
<g>
	<path class="flatshadows_twee" d="M10.348,12C9.571,8.992,9,5.817,9,5c0-1.657,1.343-3,3-3s3,1.343,3,3   c0,0.817-0.084,3.992-0.368,7H10.348z M21.652,12C22.429,8.992,23,5.817,23,5c0-1.657-1.343-3-3-3s-3,1.343-3,3   c0,0.817,0.084,3.992,0.368,7H21.652z" style="fill: #E1E5E5;"/>
	<polygon class="flatshadows_drie" points="8,14 8,30 24,30 24,14 27,14 27,12 5,12 5,14  " style="fill: #C4CCCC;"/>
	<polygon class="flatshadows_vier" points="8,14 8,17 11,17 24,30 24,17 24,14  " style="fill: #A3AFAF;"/>
	<polygon class="flatshadows_vijf" points="24,17 11,17 8,14 24,14  " style="fill: #8D9999;"/>
	<path class="flatshadows_een" d="M10.348,12C9.571,8.992,9,5.817,9,5c0-1.657,1.343-3,3-3s3,1.343,3,3c0,0.817-0.084,3.992-0.368,7   h-1.001C13.868,9.556,14,6.797,14,5c0-1.103-0.897-2-2-2s-2,0.897-2,2c0,0.608,0.466,3.356,1.195,6.278   c0.064,0.255,0.125,0.488,0.187,0.722H10.348z M18.369,12C18.132,9.556,18,6.797,18,5c0-1.103,0.897-2,2-2s2,0.897,2,2   c0,0.608-0.466,3.356-1.195,6.278c-0.064,0.255-0.125,0.488-0.187,0.722h1.035C22.429,8.992,23,5.817,23,5c0-1.657-1.343-3-3-3   s-3,1.343-3,3c0,0.817,0.084,3.992,0.368,7H18.369z" style="fill: #FDFFFF;"/>
</g>
<metadata><work rdf:about=""><format>image/svg+xml</format><type rdf:resource="http://purl.org/dc/dcmitype/StillImage"/><license rdf:resource="http://creativecommons.org/licenses/by/4.0/"/><attributionname>Shannon E Thomas</attributionname><attributionurl>http://www.toicon.com/icons/flat-shadows_disappear</attributionurl></work></metadata></svg>
