<?xml version="1.0" encoding="UTF-8"?>
<!-- Generator: Adobe Illustrator 19.1.0, SVG Export Plug-In . SVG Version: 6.00 Build 0)  -->
<svg xmlns="http://www.w3.org/2000/svg" xmlns:xlink="http://www.w3.org/1999/xlink" xmlns:dc="http://purl.org/dc/elements/1.1/" xmlns:cc="http://creativecommons.org/ns#" xmlns:rdf="http://www.w3.org/1999/02/22-rdf-syntax-ns#" version="1.1" id="DESIGNS" x="0px" y="0px" width="32px" height="32px" viewBox="0 0 32 32" style="enable-background:new 0 0 32 32;" xml:space="preserve">
<title property="dc:title">to die</title><desc property="dc:description">An icon for "die" from the Flat Shadows series on to [icon]. Downloaded from http://www.toicon.com/icons/flat-shadows_die by 121.75.17.162 on 2019-07-16. Licensed CC-BY, see http://toicon.com/license/ for details.</desc>
<g>
	<path class="flatshadows_een" d="M16,0C8.268,0,2,6.268,2,14c0,5.179,2.819,9.69,7,12.112V32h14v-5.888   c4.181-2.422,7-6.933,7-12.112C30,6.268,23.732,0,16,0z" style="fill: #FDFFFF;"/>
	<g>
		<path class="flatshadows_twee" d="M16,0v32h7v-5.888c4.181-2.422,7-6.933,7-12.112C30,6.268,23.732,0,16,0z" style="fill: #E1E5E5;"/>
		<path class="flatshadows_vier" d="M10.04,20H9.96C7.773,20,6,18.227,6,16.04v-2.08C6,11.773,7.773,10,9.96,10h0.08    c2.187,0,3.96,1.773,3.96,3.96v2.08C14,18.227,12.227,20,10.04,20z" style="fill: #A3AFAF;"/>
		<path class="flatshadows_vijf" d="M22.04,20h-0.08C19.773,20,18,18.227,18,16.04v-2.08c0-2.187,1.773-3.96,3.96-3.96h0.08    c2.187,0,3.96,1.773,3.96,3.96v2.08C26,18.227,24.227,20,22.04,20z" style="fill: #8D9999;"/>
		<rect x="11" y="26" class="flatshadows_vier" width="2" height="4" style="fill: #A3AFAF;"/>
		<rect x="15" y="26" class="flatshadows_vier" width="1" height="4" style="fill: #A3AFAF;"/>
		<rect x="16" y="26" class="flatshadows_vijf" width="1" height="4" style="fill: #8D9999;"/>
		<rect x="19" y="26" class="flatshadows_vijf" width="2" height="4" style="fill: #8D9999;"/>
	</g>
</g>
<metadata><work rdf:about=""><format>image/svg+xml</format><type rdf:resource="http://purl.org/dc/dcmitype/StillImage"/><license rdf:resource="http://creativecommons.org/licenses/by/4.0/"/><attributionname>Shannon E Thomas</attributionname><attributionurl>http://www.toicon.com/icons/flat-shadows_die</attributionurl></work></metadata></svg>
