<?xml version="1.0" encoding="UTF-8"?>
<!-- Generator: Adobe Illustrator 19.1.0, SVG Export Plug-In . SVG Version: 6.00 Build 0)  -->
<svg xmlns="http://www.w3.org/2000/svg" xmlns:xlink="http://www.w3.org/1999/xlink" xmlns:dc="http://purl.org/dc/elements/1.1/" xmlns:cc="http://creativecommons.org/ns#" xmlns:rdf="http://www.w3.org/1999/02/22-rdf-syntax-ns#" version="1.1" id="DESIGNS" x="0px" y="0px" width="32px" height="32px" viewBox="0 0 32 32" style="enable-background:new 0 0 32 32;" xml:space="preserve">
<title property="dc:title">to poison</title><desc property="dc:description">An icon for "poison" from the Flat Shadows series on to [icon]. Downloaded from http://www.toicon.com/icons/flat-shadows_poison by 121.75.17.162 on 2019-07-16. Licensed CC-BY, see http://toicon.com/license/ for details.</desc>
<g>
	<path class="flatshadows_vier" d="M20,10V7h1V5H11v2h1v3c-3.866,0-7,3.134-7,7v14h22V17C27,13.134,23.866,10,20,10z" style="fill: #A3AFAF;"/>
	<rect x="13" y="1" class="flatshadows_twee" width="6" height="4" style="fill: #E1E5E5;"/>
	<path class="flatshadows_vijf" d="M20,10V7h-8l5.205,5.205C16.823,12.083,16.423,12,16,12c-2.209,0-4,1.791-4,4   c0,0.598,0.138,1.16,0.375,1.666l-0.003,0.002L14,21l2.521,2.521L16,23.834l-4.485-2.691l-1.029,1.715l2.678,2.678l-2.678,1.607   l1.029,1.715L13.657,31H27V17C27,13.134,23.866,10,20,10z" style="fill: #8D9999;"/>
	<path class="flatshadows_een" d="M17.944,25l3.571,2.143l-1.029,1.715L16,26.166l-4.485,2.691l-1.029-1.715L14.056,25l-3.571-2.143   l1.029-1.715L16,23.834l4.485-2.691l1.029,1.715L17.944,25z M20,16c0,1.477-0.809,2.752-2,3.445V21h-4v-1.555   c-1.191-0.693-2-1.968-2-3.445c0-2.209,1.791-4,4-4S20,13.791,20,16z M15,16c0-0.552-0.448-1-1-1s-1,0.448-1,1c0,0.552,0.448,1,1,1   S15,16.552,15,16z M19,16c0-0.552-0.448-1-1-1s-1,0.448-1,1c0,0.552,0.448,1,1,1S19,16.552,19,16z" style="fill: #FDFFFF;"/>
</g>
<metadata><work rdf:about=""><format>image/svg+xml</format><type rdf:resource="http://purl.org/dc/dcmitype/StillImage"/><license rdf:resource="http://creativecommons.org/licenses/by/4.0/"/><attributionname>Shannon E Thomas</attributionname><attributionurl>http://www.toicon.com/icons/flat-shadows_poison</attributionurl></work></metadata></svg>
