<?xml version="1.0" encoding="UTF-8"?>
<!-- Generator: Adobe Illustrator 19.1.0, SVG Export Plug-In . SVG Version: 6.00 Build 0)  -->
<svg xmlns="http://www.w3.org/2000/svg" xmlns:xlink="http://www.w3.org/1999/xlink" xmlns:dc="http://purl.org/dc/elements/1.1/" xmlns:cc="http://creativecommons.org/ns#" xmlns:rdf="http://www.w3.org/1999/02/22-rdf-syntax-ns#" version="1.1" id="DESIGNS" x="0px" y="0px" width="32px" height="32px" viewBox="0 0 32 32" style="enable-background:new 0 0 32 32;" xml:space="preserve">
<title property="dc:title">to spy</title><desc property="dc:description">An icon for "spy" from the Flat Shadows series on to [icon]. Downloaded from http://www.toicon.com/icons/flat-shadows_spy by 121.75.17.162 on 2019-07-16. Licensed CC-BY, see http://toicon.com/license/ for details.</desc>
<g>
	<path class="flatshadows_vier" d="M15,17v6H3v-6c0-1.775,0.775-3.365,2-4.463V9c0-2.209,1.791-4,4-4s4,1.791,4,4v3.537   C14.225,13.635,15,15.225,15,17z M27,12.537V9c0-2.209-1.791-4-4-4s-4,1.791-4,4v3.537c-1.225,1.099-2,2.688-2,4.463v6h12v-6   C29,15.225,28.225,13.635,27,12.537z" style="fill: #A3AFAF;"/>
	<path class="flatshadows_twee" d="M27.243,18.757l-8.485,8.485C17.672,26.157,17,24.657,17,23c0-3.314,2.686-6,6-6   C24.657,17,26.157,17.672,27.243,18.757z M9,17c-3.314,0-6,2.686-6,6c0,1.657,0.672,3.157,1.757,4.243l8.485-8.485   C12.157,17.672,10.657,17,9,17z" style="fill: #E1E5E5;"/>
	<path class="flatshadows_drie" d="M27.243,18.757C28.328,19.843,29,21.343,29,23c0,3.314-2.686,6-6,6   c-1.657,0-3.157-0.672-4.243-1.757L27.243,18.757z M4.757,27.243C5.843,28.328,7.343,29,9,29c3.314,0,6-2.686,6-6   c0-1.657-0.672-3.157-1.757-4.243L4.757,27.243z" style="fill: #C4CCCC;"/>
	<path class="flatshadows_een" d="M23,17c-3.314,0-6,2.686-6,6h-2c0-3.314-2.686-6-6-6s-6,2.686-6,6s2.686,6,6,6   c2.972,0,5.433-2.163,5.91-5h2.18c0.477,2.837,2.938,5,5.91,5c3.314,0,6-2.686,6-6S26.314,17,23,17z M9,28c-2.757,0-5-2.243-5-5   s2.243-5,5-5s5,2.243,5,5S11.757,28,9,28z M23,28c-2.757,0-5-2.243-5-5s2.243-5,5-5s5,2.243,5,5S25.757,28,23,28z" style="fill: #FDFFFF;"/>
	<path class="flatshadows_vijf" d="M17,23h-2v-6h2V23z M5,11.264v1.273C6.062,11.584,7.461,11,9,11c1.539,0,2.938,0.584,4,1.537   v-1.273C11.865,10.47,10.487,10,9,10S6.135,10.47,5,11.264z M19,11.264v1.273C20.062,11.584,21.461,11,23,11   c1.539,0,2.938,0.584,4,1.537v-1.273C25.865,10.47,24.487,10,23,10S20.135,10.47,19,11.264z" style="fill: #8D9999;"/>
</g>
<metadata><work rdf:about=""><format>image/svg+xml</format><type rdf:resource="http://purl.org/dc/dcmitype/StillImage"/><license rdf:resource="http://creativecommons.org/licenses/by/4.0/"/><attributionname>Shannon E Thomas</attributionname><attributionurl>http://www.toicon.com/icons/flat-shadows_spy</attributionurl></work></metadata></svg>
