<?xml version="1.0" encoding="UTF-8"?>
<!-- Generator: Adobe Illustrator 19.1.0, SVG Export Plug-In . SVG Version: 6.00 Build 0)  -->
<svg xmlns="http://www.w3.org/2000/svg" xmlns:xlink="http://www.w3.org/1999/xlink" xmlns:dc="http://purl.org/dc/elements/1.1/" xmlns:cc="http://creativecommons.org/ns#" xmlns:rdf="http://www.w3.org/1999/02/22-rdf-syntax-ns#" version="1.1" id="DESIGNS" x="0px" y="0px" width="32px" height="32px" viewBox="0 0 32 32" style="enable-background:new 0 0 32 32;" xml:space="preserve">
<title property="dc:title">to submerge</title><desc property="dc:description">An icon for "submerge" from the Flat Shadows series on to [icon]. Downloaded from http://www.toicon.com/icons/flat-shadows_submerge by 121.75.17.162 on 2019-07-16. Licensed CC-BY, see http://toicon.com/license/ for details.</desc>
<g>
	<path class="flatshadows_twee" d="M31,12h-2l-2.152,4.304c-0.763-4.452-4.464-7.896-9.04-8.263L17,4h-6l-0.808,4.041   C5.048,8.453,1,12.75,1,18c0,5.523,4.477,10,10,10h6c4.945,0,9.041-3.593,9.846-8.308L29,24h2v-5l-1-1l1-1V12z" style="fill: #E1E5E5;"/>
	<path class="flatshadows_drie" d="M26.963,18.729l-2.846-2.846l-4,4l-4-4l-4,4l-4-4l-4.234,4.234L11.766,28H17   C22.277,28,26.588,23.91,26.963,18.729z" style="fill: #C4CCCC;"/>
	<path class="flatshadows_vier" d="M9,18c0,1.657-1.343,3-3,3s-3-1.343-3-3s1.343-3,3-3S9,16.343,9,18z M14,15c-1.657,0-3,1.343-3,3   s1.343,3,3,3s3-1.343,3-3S15.657,15,14,15z M22,15c-1.657,0-3,1.343-3,3s1.343,3,3,3s3-1.343,3-3S23.657,15,22,15z" style="fill: #A3AFAF;"/>
	<path class="flatshadows_een" d="M8,18c0,1.105-0.895,2-2,2s-2-0.895-2-2s0.895-2,2-2S8,16.895,8,18z M14,16c-1.105,0-2,0.895-2,2   s0.895,2,2,2s2-0.895,2-2S15.105,16,14,16z M22,16c-1.105,0-2,0.895-2,2s0.895,2,2,2s2-0.895,2-2S23.105,16,22,16z" style="fill: #FDFFFF;"/>
</g>
<metadata><work rdf:about=""><format>image/svg+xml</format><type rdf:resource="http://purl.org/dc/dcmitype/StillImage"/><license rdf:resource="http://creativecommons.org/licenses/by/4.0/"/><attributionname>Shannon E Thomas</attributionname><attributionurl>http://www.toicon.com/icons/flat-shadows_submerge</attributionurl></work></metadata></svg>
