<?xml version="1.0" encoding="UTF-8"?>
<!-- Generator: Adobe Illustrator 19.1.0, SVG Export Plug-In . SVG Version: 6.00 Build 0)  -->
<svg xmlns="http://www.w3.org/2000/svg" xmlns:xlink="http://www.w3.org/1999/xlink" xmlns:dc="http://purl.org/dc/elements/1.1/" xmlns:cc="http://creativecommons.org/ns#" xmlns:rdf="http://www.w3.org/1999/02/22-rdf-syntax-ns#" version="1.1" id="DESIGNS" x="0px" y="0px" width="32px" height="32px" viewBox="0 0 32 32" style="enable-background:new 0 0 32 32;" xml:space="preserve">
<title property="dc:title">to navigate</title><desc property="dc:description">An icon for "navigate" from the Flat Shadows series on to [icon]. Downloaded from http://www.toicon.com/icons/flat-shadows_navigate by 121.75.17.162 on 2019-07-16. Licensed CC-BY, see http://toicon.com/license/ for details.</desc>
<g>
	<circle class="flatshadows_twee" cx="16" cy="16" r="14" style="fill: #E1E5E5;"/>
	<circle class="flatshadows_een" cx="16" cy="16" r="12" style="fill: #FDFFFF;"/>
	<path class="flatshadows_drie" d="M6.101,25.899C8.634,28.433,12.134,30,16,30c7.732,0,14-6.268,14-14   c0-3.866-1.567-7.366-4.101-9.899L6.101,25.899z" style="fill: #C4CCCC;"/>
	<path class="flatshadows_twee" d="M16,28c6.627,0,12-5.373,12-12c0-3.314-1.343-6.314-3.515-8.485L7.515,24.485   C9.686,26.657,12.686,28,16,28z" style="fill: #E1E5E5;"/>
	<path class="flatshadows_vier" d="M25,7l-8.053,5.125C16.642,12.05,16.328,12,16,12c-2.209,0-4,1.791-4,4   c0,0.328,0.05,0.642,0.125,0.947L7,25l8.053-5.125C15.358,19.95,15.672,20,16,20c2.209,0,4-1.791,4-4   c0-0.328-0.05-0.642-0.125-0.947L25,7z M16,18c-1.105,0-2-0.895-2-2c0-1.105,0.895-2,2-2s2,0.895,2,2C18,17.105,17.105,18,16,18z" style="fill: #A3AFAF;"/>
	<circle class="flatshadows_een" cx="16" cy="16" r="2" style="fill: #FDFFFF;"/>
	<path class="flatshadows_drie" d="M17,27h-2v-2h2V27z M27,15h-2v2h2V15z" style="fill: #C4CCCC;"/>
	<path class="flatshadows_twee" d="M17,7h-2V5h2V7z M7,15H5v2h2V15z" style="fill: #E1E5E5;"/>
</g>
<metadata><work rdf:about=""><format>image/svg+xml</format><type rdf:resource="http://purl.org/dc/dcmitype/StillImage"/><license rdf:resource="http://creativecommons.org/licenses/by/4.0/"/><attributionname>Shannon E Thomas</attributionname><attributionurl>http://www.toicon.com/icons/flat-shadows_navigate</attributionurl></work></metadata></svg>
