<?xml version="1.0" encoding="UTF-8"?>
<!-- Generator: Adobe Illustrator 19.1.0, SVG Export Plug-In . SVG Version: 6.00 Build 0)  -->
<svg xmlns="http://www.w3.org/2000/svg" xmlns:xlink="http://www.w3.org/1999/xlink" xmlns:dc="http://purl.org/dc/elements/1.1/" xmlns:cc="http://creativecommons.org/ns#" xmlns:rdf="http://www.w3.org/1999/02/22-rdf-syntax-ns#" version="1.1" id="DESIGNS" x="0px" y="0px" width="32px" height="32px" viewBox="0 0 32 32" style="enable-background:new 0 0 32 32;" xml:space="preserve">
<title property="dc:title">to game</title><desc property="dc:description">An icon for "game" from the Flat Shadows series on to [icon]. Downloaded from http://www.toicon.com/icons/flat-shadows_game by 121.75.17.162 on 2019-07-16. Licensed CC-BY, see http://toicon.com/license/ for details.</desc>
<g>
	<polygon class="flatshadows_een" points="23,24 23,22 22,22 21,6 23,4 23,0 21,0 21,2 19,2 19,0 17,0 17,2 15,2 15,0 13,0 13,2    11,2 11,0 9,0 9,4 11,6 10,22 9,22 9,24 8,24 8,30 7,30 7,32 25,32 25,30 24,30 24,24  " style="fill: #FDFFFF;"/>
	<polygon class="flatshadows_twee" points="21,0 21,2 19,2 19,0 17,0 17,2 16,2 16,4 23,4 23,0  " style="fill: #E1E5E5;"/>
	<polygon class="flatshadows_twee" points="23,4 9,4 11,6 21,6  " style="fill: #E1E5E5;"/>
	<polygon class="flatshadows_drie" points="16,6 21,6 23,4 16,4  " style="fill: #C4CCCC;"/>
	<polygon class="flatshadows_twee" points="16,22 22,22 21,6 16,6  " style="fill: #E1E5E5;"/>
	<rect x="9" y="22" class="flatshadows_twee" width="14" height="2" style="fill: #E1E5E5;"/>
	<rect x="16" y="22" class="flatshadows_drie" width="7" height="2" style="fill: #C4CCCC;"/>
	<rect x="16" y="24" class="flatshadows_twee" width="8" height="6" style="fill: #E1E5E5;"/>
	<rect x="7" y="30" class="flatshadows_twee" width="18" height="2" style="fill: #E1E5E5;"/>
	<rect x="16" y="30" class="flatshadows_drie" width="9" height="2" style="fill: #C4CCCC;"/>
</g>
<metadata><work rdf:about=""><format>image/svg+xml</format><type rdf:resource="http://purl.org/dc/dcmitype/StillImage"/><license rdf:resource="http://creativecommons.org/licenses/by/4.0/"/><attributionname>Shannon E Thomas</attributionname><attributionurl>http://www.toicon.com/icons/flat-shadows_game</attributionurl></work></metadata></svg>
