<?xml version="1.0" encoding="UTF-8"?>
<!-- Generator: Adobe Illustrator 19.1.0, SVG Export Plug-In . SVG Version: 6.00 Build 0)  -->
<svg xmlns="http://www.w3.org/2000/svg" xmlns:xlink="http://www.w3.org/1999/xlink" xmlns:dc="http://purl.org/dc/elements/1.1/" xmlns:cc="http://creativecommons.org/ns#" xmlns:rdf="http://www.w3.org/1999/02/22-rdf-syntax-ns#" version="1.1" id="DESIGNS" x="0px" y="0px" width="32px" height="32px" viewBox="0 0 32 32" style="enable-background:new 0 0 32 32;" xml:space="preserve">
<title property="dc:title">to unlock</title><desc property="dc:description">An icon for "unlock" from the Flat Shadows series on to [icon]. Downloaded from http://www.toicon.com/icons/flat-shadows_unlock by 121.75.17.162 on 2019-07-16. Licensed CC-BY, see http://toicon.com/license/ for details.</desc>
<g>
	<path class="flatshadows_twee" d="M25,9c0-4.971-4.029-9-9-9S7,4.029,7,9c0,3.12,1.589,5.868,4,7.482v10.605l5,5l5-5l-1-1l1-1l-2-2   l2-2l-1-1l1-1v-2.605C23.411,14.868,25,12.12,25,9z M16,2c1.105,0,2,0.895,2,2c0,1.105-0.895,2-2,2s-2-0.895-2-2   C14,2.895,14.895,2,16,2z" style="fill: #E1E5E5;"/>
	<path class="flatshadows_drie" d="M21,25.087l-2-2l2-2l-1-1l1-1v-2.612C19.57,17.436,17.852,18,16,18   c-1.85,0-3.568-0.56-4.998-1.517l-0.002,0l9.302,9.302L21,25.087z" style="fill: #C4CCCC;"/>
	<path class="flatshadows_drie" d="M21,25.087l-2-2l2-2l-1-1l1-1v-2.612C19.57,17.436,17.852,18,16,18   c-1.85,0-3.568-0.56-4.998-1.517l-0.002,0l9.302,9.302L21,25.087z" style="fill: #C4CCCC;"/>
	<path class="flatshadows_drie" d="M14.913,17.928v13.159l1,1V17.996C15.574,17.992,15.241,17.968,14.913,17.928z" style="fill: #C4CCCC;"/>
	<path class="flatshadows_een" d="M16,18c-0.029,0-0.058-0.004-0.087-0.004v14.091l1-1V17.954C16.613,17.984,16.308,18,16,18z" style="fill: #FDFFFF;"/>
	<path class="flatshadows_vier" d="M15.913,21.397v-3.401c-0.339-0.003-0.671-0.028-1-0.068v2.468L15.913,21.397z" style="fill: #A3AFAF;"/>
	<path class="flatshadows_twee" d="M15.913,21.397l1,1v-4.443C16.613,17.984,16.308,18,16,18c-0.029,0-0.058-0.004-0.087-0.004   V21.397z" style="fill: #E1E5E5;"/>
</g>
<metadata><work rdf:about=""><format>image/svg+xml</format><type rdf:resource="http://purl.org/dc/dcmitype/StillImage"/><license rdf:resource="http://creativecommons.org/licenses/by/4.0/"/><attributionname>Shannon E Thomas</attributionname><attributionurl>http://www.toicon.com/icons/flat-shadows_unlock</attributionurl></work></metadata></svg>
