<?xml version="1.0" encoding="UTF-8"?>
<!-- Generator: Adobe Illustrator 19.1.0, SVG Export Plug-In . SVG Version: 6.00 Build 0)  -->
<svg xmlns="http://www.w3.org/2000/svg" xmlns:xlink="http://www.w3.org/1999/xlink" xmlns:dc="http://purl.org/dc/elements/1.1/" xmlns:cc="http://creativecommons.org/ns#" xmlns:rdf="http://www.w3.org/1999/02/22-rdf-syntax-ns#" version="1.1" id="DESIGNS" x="0px" y="0px" width="32px" height="32px" viewBox="0 0 32 32" style="enable-background:new 0 0 32 32;" xml:space="preserve">
<title property="dc:title">to fly</title><desc property="dc:description">An icon for "fly" from the Flat Shadows series on to [icon]. Downloaded from http://www.toicon.com/icons/flat-shadows_fly by 121.75.17.162 on 2019-07-16. Licensed CC-BY, see http://toicon.com/license/ for details.</desc>
<g>
	<path class="flatshadows_vier" d="M24,0c-0.379,0-4.466,0.675-7,1.278V0.99C17,0.443,16.557,0,16.01,0H16h-0.01   C15.443,0,15,0.443,15,0.99v0.288C12.466,0.675,8.379,0,8,0C7.448,0,7,0.448,7,1c0,0.552,0.448,1,1,1c0.379,0,15.621,0,16,0   c0.552,0,1-0.448,1-1C25,0.448,24.552,0,24,0z" style="fill: #A3AFAF;"/>
	<g>
		<g>
			<polygon class="flatshadows_twee" points="9,28 9,31 16,31 16,25    " style="fill: #E1E5E5;"/>
			<polygon class="flatshadows_twee" points="16,10 0,13 0,21 16,21    " style="fill: #E1E5E5;"/>
		</g>
		<g>
			<polygon class="flatshadows_twee" points="9,28 9,31 16,31 16,25    " style="fill: #E1E5E5;"/>
			<polygon class="flatshadows_twee" points="16,10 0,13 0,21 16,21    " style="fill: #E1E5E5;"/>
		</g>
	</g>
	<path class="flatshadows_twee" d="M21,7V6c0-2.209-1.791-4-4-4h-2c-2.209,0-4,1.791-4,4v1H21z" style="fill: #E1E5E5;"/>
	<g>
		<g>
			<polygon class="flatshadows_drie" points="16,31 23,31 23,28 16,25    " style="fill: #C4CCCC;"/>
			<path class="flatshadows_drie" d="M21,6c0-2.209-1.791-4-4-4h-1v5h5V6z" style="fill: #C4CCCC;"/>
			<polygon class="flatshadows_drie" points="16,10 16,21 32,21 32,13    " style="fill: #C4CCCC;"/>
		</g>
		<g>
			<polygon class="flatshadows_drie" points="16,31 23,31 23,28 16,25    " style="fill: #C4CCCC;"/>
			<path class="flatshadows_drie" d="M21,6c0-2.209-1.791-4-4-4h-1v5h5V6z" style="fill: #C4CCCC;"/>
			<polygon class="flatshadows_drie" points="16,10 16,21 32,21 32,13    " style="fill: #C4CCCC;"/>
		</g>
	</g>
	<path class="flatshadows_vijf" d="M24,0c-0.379,0-4.466,0.675-7,1.278V0.99C17,0.443,16.557,0,16.01,0H16v2h1V1.992   C19.534,1.995,23.621,2,24,2c0.552,0,1-0.448,1-1C25,0.448,24.552,0,24,0z" style="fill: #8D9999;"/>
	<polygon class="flatshadows_een" points="11,7 13,26 15,32 17,32 19,26 21,7  " style="fill: #FDFFFF;"/>
	<polygon class="flatshadows_twee" points="16,32 17,32 19,26 21,7 16,7  " style="fill: #E1E5E5;"/>
</g>
<metadata><work rdf:about=""><format>image/svg+xml</format><type rdf:resource="http://purl.org/dc/dcmitype/StillImage"/><license rdf:resource="http://creativecommons.org/licenses/by/4.0/"/><attributionname>Shannon E Thomas</attributionname><attributionurl>http://www.toicon.com/icons/flat-shadows_fly</attributionurl></work></metadata></svg>
