<?xml version="1.0" encoding="UTF-8"?>
<!-- Generator: Adobe Illustrator 19.1.0, SVG Export Plug-In . SVG Version: 6.00 Build 0)  -->
<svg xmlns="http://www.w3.org/2000/svg" xmlns:xlink="http://www.w3.org/1999/xlink" xmlns:dc="http://purl.org/dc/elements/1.1/" xmlns:cc="http://creativecommons.org/ns#" xmlns:rdf="http://www.w3.org/1999/02/22-rdf-syntax-ns#" version="1.1" id="DESIGNS" x="0px" y="0px" width="32px" height="32px" viewBox="0 0 32 32" style="enable-background:new 0 0 32 32;" xml:space="preserve">
<title property="dc:title">to snow</title><desc property="dc:description">An icon for "snow" from the Flat Shadows series on to [icon]. Downloaded from http://www.toicon.com/icons/flat-shadows_snow by 121.75.17.162 on 2019-07-16. Licensed CC-BY, see http://toicon.com/license/ for details.</desc>
<g>
	<path class="flatshadows_drie" d="M16,26V2c7.732,0,14,6.268,14,14c0,3.92-1.615,7.459-4.211,10H16z M16,26H6.203L4,28v2h12V26z" style="fill: #C4CCCC;"/>
	<path class="flatshadows_twee" d="M16,2C8.268,2,2,8.268,2,16c0,3.92,1.615,7.459,4.211,10H16V2z" style="fill: #E1E5E5;"/>
	<path class="flatshadows_vijf" d="M19.793,22.534L16,14v8C17.317,22,18.586,22.194,19.793,22.534z" style="fill: #8D9999;"/>
	<path class="flatshadows_vier" d="M16,22c-1.317,0-2.586,0.194-3.793,0.534L16,14V22z M16,26v4h12v-2l-2.202-2H16z" style="fill: #A3AFAF;"/>
	<path class="flatshadows_twee" d="M25.789,26c-2.525-2.472-5.977-4-9.789-4v4H25.789z" style="fill: #E1E5E5;"/>
	<path class="flatshadows_een" d="M20,5c0,0.552-0.448,1-1,1s-1-0.448-1-1s0.448-1,1-1S20,4.448,20,5z M10,5C9.448,5,9,5.448,9,6   s0.448,1,1,1s1-0.448,1-1S10.552,5,10,5z M17,10c-0.552,0-1,0.448-1,1c0,0.552,0.448,1,1,1s1-0.448,1-1C18,10.448,17.552,10,17,10z    M9,10c-0.552,0-1,0.448-1,1c0,0.552,0.448,1,1,1s1-0.448,1-1C10,10.448,9.552,10,9,10z M22,14c-0.552,0-1,0.448-1,1   c0,0.552,0.448,1,1,1s1-0.448,1-1C23,14.448,22.552,14,22,14z M14,6c-0.552,0-1,0.448-1,1s0.448,1,1,1s1-0.448,1-1S14.552,6,14,6z    M22,9c-0.552,0-1,0.448-1,1c0,0.552,0.448,1,1,1s1-0.448,1-1C23,9.448,22.552,9,22,9z M27,12c-0.552,0-1,0.448-1,1   c0,0.552,0.448,1,1,1s1-0.448,1-1C28,12.448,27.552,12,27,12z M5,13c-0.552,0-1,0.448-1,1s0.448,1,1,1s1-0.448,1-1S5.552,13,5,13z    M10,19c-0.552,0-1,0.448-1,1s0.448,1,1,1s1-0.448,1-1S10.552,19,10,19z M23,19c-0.552,0-1,0.448-1,1s0.448,1,1,1s1-0.448,1-1   S23.552,19,23,19z M5,18c-0.552,0-1,0.448-1,1s0.448,1,1,1s1-0.448,1-1S5.552,18,5,18z M27,17c-0.552,0-1,0.448-1,1s0.448,1,1,1   s1-0.448,1-1S27.552,17,27,17z M12,14c-0.552,0-1,0.448-1,1c0,0.552,0.448,1,1,1s1-0.448,1-1C13,14.448,12.552,14,12,14z M16,22   c-3.812,0-7.264,1.528-9.789,4H16V22z" style="fill: #FDFFFF;"/>
</g>
<metadata><work rdf:about=""><format>image/svg+xml</format><type rdf:resource="http://purl.org/dc/dcmitype/StillImage"/><license rdf:resource="http://creativecommons.org/licenses/by/4.0/"/><attributionname>Shannon E Thomas</attributionname><attributionurl>http://www.toicon.com/icons/flat-shadows_snow</attributionurl></work></metadata></svg>
