<?xml version="1.0" encoding="UTF-8"?>
<!-- Generator: Adobe Illustrator 19.1.0, SVG Export Plug-In . SVG Version: 6.00 Build 0)  -->
<svg xmlns="http://www.w3.org/2000/svg" xmlns:xlink="http://www.w3.org/1999/xlink" xmlns:dc="http://purl.org/dc/elements/1.1/" xmlns:cc="http://creativecommons.org/ns#" xmlns:rdf="http://www.w3.org/1999/02/22-rdf-syntax-ns#" version="1.1" id="DESIGNS" x="0px" y="0px" width="32px" height="32px" viewBox="0 0 32 32" style="enable-background:new 0 0 32 32;" xml:space="preserve">
<title property="dc:title">to flag</title><desc property="dc:description">An icon for "flag" from the Flat Shadows series on to [icon]. Downloaded from http://www.toicon.com/icons/flat-shadows_flag by 121.75.17.162 on 2019-07-16. Licensed CC-BY, see http://toicon.com/license/ for details.</desc>
<g>
	<rect x="4" class="flatshadows_twee" width="2" height="32" style="fill: #E1E5E5;"/>
	<polygon class="flatshadows_vier" points="32,24 16,24 16,5 32,5 27,15  " style="fill: #A3AFAF;"/>
	<polygon class="flatshadows_vijf" points="20,20 20,1 16,5 16,24  " style="fill: #8D9999;"/>
	<rect x="6" y="1" class="flatshadows_drie" width="14" height="19" style="fill: #C4CCCC;"/>
	<path class="flatshadows_een" d="M12,16c0-0.552-0.448-1-1-1s-1,0.448-1,1c0,0.552,0.448,1,1,1c-0.552,0-1,0.448-1,1   c0,0.552,0.448,1,1,1s1-0.448,1-1h8v-2H12z" style="fill: #FDFFFF;"/>
	<path class="flatshadows_twee" d="M24,21c0.552,0,1-0.448,1-1c0-0.552-0.448-1-1-1s-1,0.448-1,1h-3l-2,2h5c0,0.552,0.448,1,1,1   s1-0.448,1-1C25,21.448,24.552,21,24,21z" style="fill: #E1E5E5;"/>
	<path class="flatshadows_twee" d="M20,7.422V10c0.552,0,1,0.672,1,1.5S20.552,13,20,13v3.578c1.764-0.772,3-2.529,3-4.578   S21.764,8.194,20,7.422z" style="fill: #E1E5E5;"/>
	<path class="flatshadows_een" d="M20,14v-1.422V9c-0.552,0-1-0.672-1-1.5S19.448,6,20,6V3.422C19.387,3.154,18.712,3,18,3   c-2.761,0-5,2.239-5,5c0,2.049,1.236,3.806,3,4.578V14H20z M15,7.5C15,6.672,15.448,6,16,6s1,0.672,1,1.5S16.552,9,16,9   S15,8.328,15,7.5z" style="fill: #FDFFFF;"/>
	<polygon class="flatshadows_vier" points="8,20 6,20 6,1  " style="fill: #A3AFAF;"/>
</g>
<metadata><work rdf:about=""><format>image/svg+xml</format><type rdf:resource="http://purl.org/dc/dcmitype/StillImage"/><license rdf:resource="http://creativecommons.org/licenses/by/4.0/"/><attributionname>Shannon E Thomas</attributionname><attributionurl>http://www.toicon.com/icons/flat-shadows_flag</attributionurl></work></metadata></svg>
