<svg xmlns="http://www.w3.org/2000/svg" xmlns:xlink="http://www.w3.org/1999/xlink" width="11" height="18" viewBox="0 0 11 18">
  <defs>
    <path id="arrow-a" d="M5.45833329,7.82362983 L12,13.9898785 L18.5416667,7.82362983 C18.7344202,7.64193821 19.0354252,7.64210205 19.2279808,7.82400341 L20.6152455,9.13450994 C20.8159821,9.32413966 20.824986,9.64059408 20.6353563,9.84133068 C20.6288448,9.84822362 20.6221385,9.85492993 20.6152455,9.86144147 L12.343355,17.6756431 C12.1506467,17.8576887 11.8493533,17.8576887 11.656645,17.6756431 L3.38475447,9.86144147 C3.18401787,9.67181176 3.17501397,9.35535733 3.36464368,9.15462074 C3.37115523,9.1477278 3.37786154,9.14102149 3.38475447,9.13450994 L4.77201924,7.82400341 C4.96457482,7.64210205 5.26557979,7.64193821 5.45833329,7.82362983 Z"/>
  </defs>
  <use fill="#85858B" fill-rule="evenodd" transform="rotate(-90 7 14)" xlink:href="#arrow-a"/>
</svg>
