<svg xmlns="http://www.w3.org/2000/svg" width="24" height="24" viewBox="0 0 24 24">
  <g fill="none" fill-rule="evenodd">
    <circle cx="12" cy="12" r="12" fill="#FFF" fill-opacity=".96"/>
    <path fill="#DA8C0C" d="M5,3.92258898 L8.16074433,0.761844633 C8.32346283,0.599126183 8.58728158,0.599126183 8.75,0.761844633 L9.23815533,1.25 C9.40087383,1.41271846 9.40087383,1.6765372 9.23815533,1.83925565 L6.07741102,5 L9.23815533,8.16074433 C9.40087383,8.32346283 9.40087383,8.58728158 9.23815533,8.75 L8.75,9.23815533 C8.58728158,9.40087383 8.32346283,9.40087383 8.16074433,9.23815533 L5,6.07741102 L1.83925565,9.23815533 C1.6765372,9.40087383 1.41271846,9.40087383 1.25,9.23815533 L0.761844633,8.75 C0.599126183,8.58728158 0.599126183,8.32346283 0.761844633,8.16074433 L3.92258898,5 L0.761844633,1.83925565 C0.599126183,1.6765372 0.599126183,1.41271846 0.761844633,1.25 L1.25,0.761844633 C1.41271846,0.599126183 1.6765372,0.599126183 1.83925565,0.761844633 L5,3.92258898 Z" transform="translate(7 7)"/>
  </g>
</svg>
