<?xml version="1.0" encoding="UTF-8"?>
<svg width="90px" height="58px" viewBox="0 0 90 58" version="1.1" xmlns="http://www.w3.org/2000/svg" xmlns:xlink="http://www.w3.org/1999/xlink">
    <title>Slice 1</title>
    <g id="Page-1" stroke="none" stroke-width="1" fill="none" fill-rule="evenodd">
        <path d="M63.088,18.045 C64.127,19.624 64.941,20.871 65.741,18.423 C66.334,20.932 67.239,19.769 68.391,18.266 C68.674,20.129 68.954,21.462 70.645,19.632 C70.219,22.059 71.526,21.363 73.126,20.559 C72.715,22.287 72.487,23.587 74.668,22.732 C73.42,24.707 74.769,24.738 76.549,24.727 C75.454,26.109 74.574,27.207 76.97,27.232 C74.91,28.504 76.073,28.998 77.84,29.563 C76.156,30.383 74.875,31.028 77.251,31.963 C74.707,32.305 75.711,33.213 77.215,34.424 C75.288,34.512 73.988,34.674 75.813,36.436 C73.377,35.811 73.995,37.061 74.857,38.707 C73.107,38.127 71.908,37.871 72.801,40.084 C70.863,38.717 70.853,40 70.948,41.811 C69.546,40.625 68.405,39.565 68.445,42.153 C67.134,39.842 66.644,40.952 66.112,42.983 C65.299,41.022 64.686,39.665 63.716,42.362 C63.457,39.508 62.52,40.69 61.251,42.372 C61.246,40.29 61.063,39.087 59.24,40.997 C59.932,38.509 58.61,39.229 56.967,40.079 C57.542,38.356 57.706,37.253 55.574,38.061 C56.85,36.207 55.578,36.178 53.864,36.209 C54.915,34.822 55.791,33.707 53.43,33.59 C55.485,32.32 54.423,31.744 52.63,31.092 C54.372,30.274 55.625,29.628 53.291,28.549 C55.842,28.273 54.807,27.247 53.449,25.937 C55.308,25.874 56.501,25.672 54.986,23.855 C57.22,24.474 56.717,23.139 56.166,21.546 C57.754,22.066 59.049,22.488 58.46,20.301 C60.272,21.733 60.511,20.564 60.627,18.722 C62.012,20.355 62.717,20.181 63.088,18.045 Z" id="Path" fill="#FFFFFF" fill-rule="nonzero"></path>
        <path d="M11.472,52.314 L10.094,50.843 C11.329,49.685 12.722,48.302 14.353,46.616 L15.803,48.018 C14.148,49.729 12.731,51.135 11.472,52.314 Z M67.982,51.705 C67.383,51.705 66.787,51.687 66.192,51.652 L66.308,49.638 C67.166,49.689 68.028,49.701 68.896,49.673 C69.972,49.636 71.046,49.519 72.089,49.323 L72.461,51.303 C71.318,51.518 70.142,51.647 68.964,51.688 C68.637,51.701 68.31,51.705 67.982,51.705 Z M60.039,50.676 C58.117,50.184 56.146,49.504 54.178,48.653 L54.978,46.801 C56.85,47.61 58.721,48.256 60.54,48.723 L60.039,50.676 Z M78.44,49.275 L77.53,47.476 C79.254,46.603 80.831,45.492 82.217,44.173 L83.608,45.634 C82.078,47.09 80.34,48.314 78.44,49.275 Z M48.682,45.852 C46.998,44.868 45.268,43.737 43.537,42.497 L44.713,40.858 C46.393,42.063 48.07,43.157 49.7,44.112 L48.682,45.852 Z M19.974,43.611 L18.5,42.234 L19.742,40.904 C20.688,39.89 21.653,38.857 22.636,37.812 L24.105,39.193 C23.124,40.236 22.161,41.269 21.216,42.281 L19.974,43.611 Z M87.491,40.639 L85.73,39.657 C86.665,37.981 87.332,36.178 87.712,34.3 L89.69,34.698 C89.268,36.781 88.528,38.781 87.491,40.639 Z M38.699,38.752 C37.217,37.523 35.672,36.172 34.107,34.732 L35.473,33.246 C37.012,34.664 38.531,35.992 39.986,37.197 L38.699,38.752 Z M28.271,34.83 L26.825,33.424 C27.769,32.451 28.729,31.481 29.702,30.514 C28.365,29.189 26.975,27.772 25.452,26.183 L26.908,24.787 C28.421,26.366 29.802,27.773 31.128,29.088 L30.294,29.93 C30.339,29.885 30.384,29.841 30.429,29.797 L31.121,29.121 L32.525,30.568 L31.841,31.236 C30.629,32.426 29.439,33.627 28.271,34.83 Z M87.993,28.582 C87.801,26.664 87.317,24.803 86.558,23.05 L88.41,22.249 C89.251,24.193 89.785,26.255 90,28.379 L87.993,28.582 Z M36.919,26.469 L35.576,24.964 C37.165,23.546 38.736,22.22 40.244,21.022 L41.499,22.602 C40.02,23.775 38.479,25.077 36.919,26.469 Z M21.287,21.776 L19.824,20.212 C18.917,19.24 18.028,18.287 17.155,17.359 L18.624,15.978 C19.498,16.907 20.39,17.862 21.298,18.835 L22.759,20.399 L21.287,21.776 Z M46.307,19.06 L45.178,17.39 C46.946,16.194 48.714,15.119 50.432,14.194 L51.387,15.97 C49.729,16.862 48.02,17.902 46.307,19.06 Z M83.513,18.21 C82.263,16.766 80.799,15.51 79.162,14.477 L80.239,12.771 C82.044,13.91 83.657,15.295 85.037,16.89 L83.513,18.21 Z M56.761,13.505 L56.05,11.618 C58.051,10.863 60.06,10.287 62.022,9.907 L62.406,11.886 C60.556,12.246 58.656,12.791 56.761,13.505 Z M73.92,12.137 C72.294,11.674 70.606,11.41 68.898,11.354 C68.669,11.346 68.443,11.342 68.215,11.34 L68.233,9.323 C68.476,9.325 68.72,9.33 68.965,9.338 C70.835,9.4 72.689,9.689 74.471,10.196 L73.92,12.137 Z" id="Shape" fill="#FFFFFF" fill-rule="nonzero"></path>
        <polygon id="Path" fill="#FFFFFF" fill-rule="nonzero" points="17.911 53.443 12.267 50.236 10.658 43.947 3.029 57.291"></polygon>
        <polygon id="Path" fill="#FFFFFF" fill-rule="nonzero" points="0 10.205 5.644 6.998 7.253 0.708 14.882 14.053"></polygon>
    </g>
</svg>