<?xml version="1.0" encoding="utf-8"?>
<!-- Generator: Adobe Illustrator 22.1.0, SVG Export Plug-In . SVG Version: 6.00 Build 0)  -->
<svg version="1.1" id="Layer_1" xmlns="http://www.w3.org/2000/svg" xmlns:xlink="http://www.w3.org/1999/xlink" x="0px" y="0px"
	 viewBox="0 0 50 50" style="enable-background:new 0 0 50 50;" xml:space="preserve">
<style type="text/css">
	.st0{fill:#FFFFFF;}
</style>
<path class="st0" d="M40.6,37.7l-8.5-8.5c1.5-2.1,2.4-4.7,2.4-7.5c0-7.1-5.8-12.8-12.8-12.8c-7.1,0-12.8,5.8-12.8,12.8
	s5.8,12.8,12.8,12.8c2.8,0,5.5-0.9,7.6-2.5l8.5,8.5L40.6,37.7z M21.7,30.6c-4.9,0-8.8-4-8.8-8.8c0-4.9,4-8.8,8.8-8.8s8.8,4,8.8,8.8
	C30.5,26.6,26.6,30.6,21.7,30.6z"/>
</svg>
