<svg xmlns="http://www.w3.org/2000/svg" width="60" height="60" viewBox="0 0 60 60">
  <defs>
    <linearGradient id="instagram-a" x1="50%" x2="50%" y1="99.709%" y2=".777%">
      <stop offset="0%" stop-color="#E09B3D"/>
      <stop offset="30%" stop-color="#C74C4D"/>
      <stop offset="60%" stop-color="#C21975"/>
      <stop offset="100%" stop-color="#7024C4"/>
    </linearGradient>
  </defs>
  <g fill="none">
    <path fill="url(#instagram-a)" d="M0,30 C0,13.4314567 13.4314567,0 30,0 C46.5685433,0 60,13.4314567 60,30 C60,46.5685433 46.5685433,60 30,60 C13.4314567,60 0,46.5685433 0,30 Z"/>
    <path fill="#FFF" d="M30.0016875,12 C25.1131366,12 24.4996302,12.021375 22.5796103,12.10875 C20.6633403,12.1965 19.3553266,12.499875 18.2108147,12.9450001 C17.0269274,13.40475 16.0226669,14.01975 15.0221565,15.020625 C14.020896,16.021125 13.4058897,17.025375 12.9446348,18.208875 C12.4983802,19.3537501 12.194627,20.662125 12.1083761,22.577625 C12.0225002,24.497625 12,25.1115 12,30.0000001 C12,34.8885001 12.0217502,35.500125 12.1087512,37.420125 C12.196877,39.336375 12.5002552,40.644375 12.9450099,41.788875 C13.4051396,42.97275 14.0201461,43.9770001 15.0210315,44.9775001 C16.0211669,45.9787501 17.0254273,46.5952501 18.2085647,47.0550001 C19.3538267,47.5001251 20.6622153,47.8035001 22.5781102,47.8912501 C24.4981302,47.978625 25.1112615,48 29.9994375,48 C34.8883634,48 35.4999948,47.978625 37.4200148,47.8912501 C39.3362848,47.8035001 40.6457984,47.5001251 41.7910603,47.0550001 C42.9745727,46.5952501 43.9773331,45.9787501 44.9774685,44.9775001 C45.9787289,43.9770001 46.5937354,42.97275 47.0549901,41.7892501 C47.4974948,40.644375 47.8012479,39.3360001 47.8912488,37.4205001 C47.9774998,35.5005 48,34.8885001 48,30.0000001 C48,25.1115 47.9774998,24.4980001 47.8912488,22.578 C47.8012479,20.66175 47.4974948,19.3537501 47.0549901,18.20925 C46.5937354,17.025375 45.9787289,16.021125 44.9774685,15.020625 C43.9762081,14.019375 42.9749476,13.404375 41.7899353,12.9450001 C40.6424234,12.499875 39.3336597,12.1965 37.4173897,12.10875 C35.4973698,12.021375 34.8861134,12 29.9960625,12 L30.0016875,12 Z M28.3869207,15.24375 C28.8661757,15.243 29.4009313,15.24375 30.0016875,15.24375 C34.8077376,15.24375 35.3773685,15.261 37.2752633,15.34725 C39.0302815,15.4275 39.9827914,15.72075 40.6172981,15.967125 C41.4573069,16.293375 42.056188,16.683375 42.6858196,17.313375 C43.3158262,17.943375 43.7058302,18.543375 44.0328336,19.383375 C44.2792112,20.017125 44.5728393,20.9696251 44.6527152,22.724625 C44.738966,24.622125 44.7577162,25.192125 44.7577162,29.9958751 C44.7577162,34.799625 44.738966,35.369625 44.6527152,37.267125 C44.5724643,39.0221251 44.2792112,39.9746251 44.0328336,40.6083751 C43.7065803,41.448375 43.3158262,42.0465 42.6858196,42.676125 C42.0558131,43.306125 41.4576819,43.696125 40.6172981,44.022375 C39.9835415,44.269875 39.0302815,44.562375 37.2752633,44.642625 C35.3777436,44.7288751 34.8077376,44.747625 30.0016875,44.747625 C25.1952625,44.747625 24.6256315,44.7288751 22.7281117,44.642625 C20.9730935,44.5616251 20.0205836,44.2683751 19.385702,44.022 C18.5456931,43.6957501 17.945687,43.30575 17.3156804,42.6757501 C16.6856738,42.04575 16.2956697,41.44725 15.9686663,40.606875 C15.7222887,39.973125 15.4286607,39.020625 15.3487849,37.2656251 C15.262534,35.368125 15.2452838,34.798125 15.2452838,29.991375 C15.2452838,25.184625 15.262534,24.617625 15.3487849,22.7201251 C15.4290358,20.965125 15.7222887,20.012625 15.9686663,19.3781251 C16.2949197,18.538125 16.6856738,17.938125 17.3156804,17.308125 C17.945687,16.6781249 18.5456931,16.288125 19.385702,15.961125 C20.0202086,15.713625 20.9730935,15.421125 22.7281117,15.3405 C24.388629,15.2655 25.0321358,15.243 28.3869207,15.23925 L28.3869207,15.24375 Z M39.6100376,18.2325 C38.4175252,18.2325 37.4500151,19.1988751 37.4500151,20.39175 C37.4500151,21.58425 38.4175252,22.55175 39.6100376,22.55175 C40.80255,22.55175 41.77006,21.58425 41.77006,20.39175 C41.77006,19.19925 40.80255,18.23175 39.6100376,18.23175 L39.6100376,18.2325 Z M30.0016875,20.75625 C24.8967594,20.75625 20.7578413,24.895125 20.7578413,30.0000001 C20.7578413,35.104875 24.8967594,39.241875 30.0016875,39.241875 C35.1066158,39.241875 39.2440338,35.104875 39.2440338,30.0000001 C39.2440338,24.895125 35.1062407,20.75625 30.0013125,20.75625 L30.0016875,20.75625 Z M30.0016875,24 C33.315222,24 36.00175,26.686125 36.00175,30.0000001 C36.00175,33.3135 33.315222,36.0000001 30.0016875,36.0000001 C26.687778,36.0000001 24.001625,33.3135 24.001625,30.0000001 C24.001625,26.686125 26.687778,24 30.0016875,24 Z"/>
  </g>
</svg>
