<svg xmlns="http://www.w3.org/2000/svg" width="24" height="24" viewBox="0 0 24 24">
  <g fill="none" fill-rule="evenodd">
    <circle cx="12" cy="12" r="12" fill="#00CA95"/>
    <path fill="#FFF" fill-rule="nonzero" d="M10.0742159,12.8308919 L13.0443795,15.577411 C13.3963162,15.9028479 13.3963162,16.4304854 13.0443795,16.7559223 C12.6924428,17.0813592 12.1218407,17.0813592 11.769904,16.7559223 L7.26395253,12.5892557 C6.91201582,12.2638187 6.91201582,11.7361813 7.26395253,11.4107443 L11.769904,7.24407768 C12.1218407,6.91864077 12.6924428,6.91864077 13.0443795,7.24407768 C13.3963162,7.56951459 13.3963162,8.09715207 13.0443795,8.42258898 L10.0794963,11.1642253 L16.0988097,11.1642253 C16.5965234,11.1642253 17,11.5373213 17,11.9975586 C17,12.4577959 16.5965234,12.8308919 16.0988097,12.8308919 L10.0742159,12.8308919 Z" transform="rotate(-180 12 12)"/>
  </g>
</svg>
