<?xml version="1.0" encoding="utf-8"?>
<!-- Generator: Adobe Illustrator 22.0.1, SVG Export Plug-In . SVG Version: 6.00 Build 0)  -->
<!DOCTYPE svg PUBLIC "-//W3C//DTD SVG 1.1//EN" "http://www.w3.org/Graphics/SVG/1.1/DTD/svg11.dtd">
<svg version="1.1" id="Layer_1" xmlns="http://www.w3.org/2000/svg" xmlns:xlink="http://www.w3.org/1999/xlink" x="0px" y="0px"
	 viewBox="0 0 1425.5 742.9" style="enable-background:new 0 0 1425.5 742.9;" xml:space="preserve">
<g>
	<g>
		<path d="M62,688.5c-7.7-2.3-14.1-0.7-20.6,0.7c-8.5,1.8-8.5,1.8-6-6.4c0.3-1,0.8-1.9,0.9-2.9c0.8-7.2,4.6-11.7,11.6-13.6
			c1.9-0.5,3.5-1.9,4.8-3.5c4.7-5.6,9.2-11.4,15-16.5c-1.9-1.4-3.4-0.7-5-0.4c-4,0.7-7.9,1.2-11.7-0.8c-2.3-1.3-4.2,0.1-6.1,1.1
			c-6.8,3.5-13.4,7.4-20.8,9.7c-2,0.6-4.1,1-6.5,1.5c2.7-6.6,27.6-27.9,40-34.4c-7.9,0.4-15.1,1.3-21.9,3.5
			c-6.8,2.2-13.5,4.4-21.4,2.7c6.4-4.1,12.1-8.6,17.6-13.4c5.4-4.7,11.2-8.7,18.5-11.6c-5.5-3.7-10.6-2.8-15.4-0.9
			c-5.7,2.3-11.1,5.2-16.7,7.8c-2.7,1.2-5.6,2.3-8.6,2.4c-1,0-2.1,0.4-2.7-0.7c-0.5-1.1,0.3-1.9,0.8-2.7c2.4-3.5,6-5.2,9.8-6.5
			c6.1-2.2,12.3-4.1,18.4-6.5c5.2-2,5.3-2.9,1.4-6.5c-2.5-2.3-2.2-4.3,0.3-6.2c4.5-3.4,9.1-6.8,13.6-10.2c0.9-0.7,2.4-1.2,2.1-2.5
			c-0.4-1.7-2.2-1.2-3.4-1.2c-3.1-0.1-5.9,0.9-8.7,1.9c-1.8,0.6-3.5,1.1-5.2-0.3c-0.8-0.7-1.7-1.3-1.6-2.4c0.1-1.3,1.3-1.4,2.3-1.4
			c3.2-0.1,5.9-1.4,8.1-3.4c4.9-4.6,10.8-6.2,17.2-7c4.9-0.6,9.9-1.1,15.1-5c-6.9-0.3-12.6,1.7-18.4,1.8c-0.8,0-1.6,0.3-2.5,0.4
			c-2.6,0.2-5.7,1.1-6.1-3c-0.3-3.6,0.3-6.7,5-6.8c9.5-0.2,17.2-4.9,24.5-10.2c0.6-0.5,1.1-1.1,2.1-2.2c-4.1-0.6-6.9,1.5-10,2.1
			c-4.4,1-5.8-0.2-4.1-4.1c2-4.5-0.2-4.8-3.6-4.7c-2.2,0.1-4.5-0.1-4.7-3.2c-0.2-2.9-0.5-5.9,3.2-6.8c0.6-0.2,1.4-0.2,1.9-0.5
			c1.2-0.8,4.5-1,3.2-2.5c-1.3-1.4-2-5.7-5.8-3.7c-1.2,0.6-2.4,1.2-3.6,1.6c-2,0.7-4.2,2.2-6.1,0.7c-2.1-1.6-0.1-3.7,0.4-5.4
			c0.9-2.6-0.3-3.7-2.7-4.1c-5-0.9-5-6.6-8.6-9.2c-1.2-0.8,2.2-2.2,3.8-2.1c7.4,0.4,14.1-2.2,20.8-4.8c3.6-1.4,6.9-3.4,9.3-6.5
			c0.7-0.9,1.9-2.7,0.8-2.9c-5.2-0.6-7.5-8.1-13.9-5.9c-1.3,0.5-3.5,1-4.2-0.4c-0.9-1.9,1.4-2.7,2.5-3.7c2.8-2.6,5.7-5,8.9-7.7
			c-3.8-1.7-7.2,0.7-10.5-0.3c-0.4-2.2,1.4-2.6,2.5-3.4c15.6-11.3,27.9-25.2,33.8-44c1.2-3.9,2.9-2.9,4.7-0.7
			c3.1,3.6,4.1,8.4,6.5,12.4c0.8,1.3,1.3,3.5,3.4,3c1.7-0.4,1.4-2.5,1.9-3.8c0.1-0.2,0.1-0.3,0.1-0.5c0.9-2.2-0.3-6.3,3.7-5.8
			c3.6,0.4,5.7,3.5,6,7.1c0.4,4,0.3,8,1.1,11.9c0.9,4.9,3.3,7.6,8.3,8.6c5.6,1.1,5.9,2.2,4,7.6c-0.9,2.5-2.4,5.2-0.1,7.5
			c2.1,2.2,4.8,0.7,7-0.1c3.4-1.2,6.5-0.9,9.7,0.5c4.7,2.2,9.3,4.5,14.4,5.7c3.5,0.8,3.6,2.3,1.2,4.7c-4.1,4-4,4.2,0.9,6.7
			c1,0.5,2.1,1,3.1,1.5c7.1,3.5,7.2,3.5,2.9,10c-2.1,3.2,0.1,4.1,2.3,5.1c9.6,4.6,19.3,9.1,28.9,13.7c1.2,0.6,2.6,0.7,3.6,2.4
			c-4.4,2.8-8,7-14.1,6.1c-1-0.1-2.1-0.4-2.6,0.8c-0.6,1.4,0.3,2.3,1.3,2.9c3.6,2.3,1.9,3.6-0.7,5c-1.9,1-3.5,2.8-5.8,2.8
			c-2.6,0-3.5,1-3.3,3.6c0.2,2.8,1.4,3.7,4.1,3.7c3.9,0.1,8.5-0.3,7.2,6.3c-0.4,1.9,1.8,2.5,3.5,2.9c3.2,0.8,6.5,1.4,9.7,2.3
			c1.1,0.3,2.4,0.7,2.6,2c0.2,1.4-1,2-2,2.5c-2.8,1.5-5.4,2.9-6.5,6.4c-0.7,2.2-3.5,2.4-5.5,2.8c-4.4,0.9-8.8,1.6-13.2,2.6
			c-1.2,0.3-3,0.5-2.9,2.2c0.1,1.3,1.6,1.5,2.7,1.9c4.9,1.6,10,3.2,15.1,2.8c9.2-0.8,16.6,2.7,23,8.8c4.2,4,8.1,8.4,13,11.6
			c1.9,1.3,2.2,2.7-0.2,3.5c-4.2,1.4-2.9,3.5-1.1,6c1,1.4,3,2.9,1.9,4.8c-1,1.8-3.4,0.7-5.1,0.7c-2.6,0-5.2-1.1-8.4-0.2
			c2.4,3.3,5.7,5.1,8.3,7.5c1.4,1.4,3.8,2.7,3.2,4.7c-0.7,2.4-3.6,1.8-5.6,2c-4.3,0.3-8.7-0.3-12.9,0.8c-1.7,0.4-4.1,0.6-4.2,2.8
			c-0.1,2,2,2.5,3.5,3.1c2.7,1,4.8,2.8,6.7,5c3.6,4.3,8.8,6.5,13.9,8.6c4.3,1.7,8.6,3.5,12.9,5.4c1,0.4,2.4,1,2,2.5
			c-0.4,1.6-2,1.9-3.2,1.6c-3.4-0.8-6.7-2-10.1-2.9c-1.7-0.5-4-1.5-5,0.3c-1,1.6,1.4,2.7,2.4,3.9c0.1,0.1,0.2,0.2,0.4,0.4
			c2.1,2.5,6.8,4.5,5.7,7.5c-1.3,3.3-5.6,0.7-8.6,0.4c-3.5-0.3-4.8,1.9-5.9,4.3c-1.7,3.9-4.5,4.6-8.1,3.1c-4.8-2-9.5-4.1-14.2-6.1
			c-4.1-1.7-8.4-2.3-12.6-0.6c-1,0.4-2.4,0.8-2.3,2.3c0.1,1.1,1.3,1.4,2.2,1.8c3.5,1.1,7,2.2,10.5,3.3c1.2,0.4,2.9,0.5,2.8,2.3
			c-0.1,1.4-1.6,1.5-2.8,1.6c-2.8,0.3-4.7,1.8-5.3,4.5c-0.6,2.9-2.6,3.4-5.2,3.4c-4.4,0.1-8.8-0.6-13.1,0.6c-0.1,0.5-0.2,1-0.3,1.4
			c6.2,1.7,12.4,3.7,18.8,5.1c2.1,0.5,2.1-2.1,2.2-3.7c0.9-8.6,2.3-9.9,11-9.7c4.7,0.1,9.3,0.2,14,0.8c11.3,1.5,22-2.7,33.1-3.3
			c4.2-0.2,7.2-3.9,9.9-7.2c2.9-3.7,6-7.2,10.5-9.7c-2.5-0.2-5-0.2-7.4-0.6c-1.8-0.3-4.5,0.3-5.1-1.9c-0.5-1.9,1.6-3.2,2.9-4.3
			c2.5-2.2,5.2-4.2,7.7-6.4c1-0.8,2.4-1.8,1.8-3.3c-0.7-1.7-2-3.1-0.4-5c3.2-3.6,6.1-7.5,9.5-11c1-1,2.1,0.3,2.8,1.2
			c4.1,5.5,8.9,10.3,14.7,14c3.2,2,2.6,4.2-1.1,6.2c-1.4,0.8-3.7,0.9-3.8,2.8c-0.1,2.2,2.4,2.4,3.9,3.4c1.4,0.9,2.9,1.7,4.4,2.4
			c2.6,1.2,3.8,2.7,1.2,5.1c-2.3,2.1-0.4,3.2,1.3,4.1c3.4,1.7,7.1,3,10.3,5c3,1.8,5.7,4.1,1.7,7.9c6.6,1.4,11.7,0.3,15.7-5.2
			c3.6-5,9.8-6,15.2-8.2c3.2-1.3,7.2-1.7,6.4-7c-0.3-2.2,2.2-3.6,4.2-4.5c4.8-2.3,9.7-4.4,14.6-6.6c1.7-0.8,3.8-1,5.5-3.6
			c-6.8,1.5-12.9,2.9-19,4.1c-4.5,0.9-9.2,2-13.6-0.5c-2.8-1.6-3.1-3-0.1-4.9c6.3-3.9,12.2-8.8,20.1-9.6c3.3-0.3,4.7-4.1,7.6-5.4
			c0.8-0.3,1.5-0.7,2.2-1.2c2.1-1.4,5.6-0.8,6.3-3.9c0.4-1.7-7.1-5.9-9.9-5.6c-2.3,0.2-4.7,0.6-6.9,1.3c-7.8,2.4-13.4-2.4-19.4-5.8
			c-1.9-1.1-0.9-2.5-0.1-3.8c3.7-5.9,8.3-10.8,15.5-12.3c1.9-0.4,3.6-1.5,5.4-2.3c-0.1-0.4-0.2-0.8-0.3-1.2
			c-3.2,0.7-6.4,1.4-9.6,2.2c-3.7,0.9-7.4,1.9-11.2,2.7c-1.3,0.3-3.3,1-3.9-0.7c-0.5-1.4,1.3-2.2,2.4-2.8c3.3-1.9,6.7-3.6,10.2-5.4
			c2.2-1.1,4.4-2.1,2.1-5.1c-1.6-2.1-0.2-3.3,1.5-4.3c3.4-2,6.8-4.1,10.7-6.5c-2.2-1.7-4.4-1.4-6.3-1.7c-0.8-0.1-1.9,0.3-2-0.8
			c-0.1-0.7,0.5-1.6,1.1-2.1c2.7-2.6,6.2-3.8,9.7-5c3.3-1.1,6.6-2.3,9.9-3.5c1.3-0.5,3.1-1.2,2.8-3c-0.3-2-2.1-2.5-3.8-2.6
			c-4-0.2-8-0.2-12-0.2c-2.5,0-5-0.1-7.4-0.9c-2-0.7-3.8-1.7-3.6-4.1c0.2-2.6,1.9-4.2,4.6-4.5c3.2-0.4,6.3,0,9.4,0.6
			c2.2,0.4,4.8,0.5,6.1-1.1c2.8-3.6,6.5-3.5,10.3-3.3c3.1,0.1,5.3-0.4,5-4.3c-0.3-4-3.1-3.3-5.5-3.1c-4,0.3-7.9,1-11.9,1.5
			c-1.3,0.1-2.8,0.7-3.6-0.8c-0.7-1.2,0.4-2.3,1.1-3.1c3.2-3.7,1.3-4.7-2.5-4.8c-4.8-0.1-9.7-0.1-14.5-0.2c-1.2,0-3,0.1-3.1-1.7
			c-0.1-1.3,1.3-1.9,2.3-2.3c3.6-1.3,7.2-2.4,10.9-3.6c3.3-1.1,6.8-1.8,9.7-3.9c2.7-2,5.6-4.2,2.2-8c-0.9-1.1-1-2.5-0.3-3.8
			c4.4-6.9,7.8-14.5,12.9-20.9c1.6-2,1.1-2.9-0.9-3.6c-1.4-0.5-2.9-0.6-4.3-1c-1.6-0.5-4.2,0.1-4.4-2.3c-0.2-1.9,1.8-3,3.3-4.1
			c8.2-5.5,17.2-5.9,26.4-3.8c3.4,0.8,5.5-0.1,7.7-2.8c4.2-5.3,9.6-9.1,16.3-11.1c1-0.3,2.7-0.2,2.4-1.8c-0.3-1.4-1.8-1.1-3-1.2
			c-3-0.2-6-0.3-8.9-0.7c-3.8-0.5-3.6-2.6-1.2-4.6c2.4-2,5.2-3.6,7.8-5.4c2-1.4,5.2-2.5,5-5.1c-0.2-3-4.1-1.1-6.4-3.3
			c6-2.8,4.5-8.9,6.3-13.7c1.6-4.2,3.4-7.5,7.1-10.2c3.5-2.6,5.1-6.9,6.8-10.9c1.8-4.5,3.8-8.9,7.4-12.3c2-1.9,4.2-2.6,5.8,0.1
			c2.7,4.6,7.4,8.1,7.9,14.1c0.2,2.7,3,3.3,5.1,4.3c3.2,1.5,6.5,2.7,8.7,5.6c2.1,2.7,3.1,5.4-1.8,6.5c-3.9,0.9-3.5,2.8-0.8,4.9
			c3.5,2.7,6.3,5.2,4.1,10.8c-1.3,3.2,0.7,7.4,4.6,9.6c4.9,2.9,9.7,5.9,14.3,9.2c2.1,1.4,4.5,3,3.5,6.4c-0.6,2.1,1.7,2.2,2.9,2.7
			c5.7,1.9,11.4,3.9,17.1,5.5c6.6,1.9,12.2,5,16.3,10.8c2.6,3.6,5.8,6.8,9.8,9.1c2.8,1.7,5.7,1.6,7.6-1c2.1-3.1-0.8-4.8-2.8-6.4
			c-1.4-1.1-3.1-2.2-4.8-2.7c-4.2-1.1-3.4-4.5-3.2-7.2c0.4-3.4,3.5-2.3,5.6-2.5c2.8-0.2,5.7-0.1,8.5-0.1c1.6,0,2.5-0.9,2.7-2.4
			c0.3-2.1-1.4-1.8-2.7-2c-7.3-1.2-14.4-3.4-21.7-6.6c6.3,0.6,7.3-4.8,10.1-7.9c2.1-2.3,0.8-5,0.1-7.6c-1.7-6-0.7-7.2,5.6-6.3
			c4.9,0.7,9,3.3,13.4,5.3c1.1,0.5,2.5,1.9,3.5,0.3c0.8-1.3-0.4-2.6-1.4-3.4c-2.7-2.2-5.6-4.2-8.8-6.5c2.6-1.9,6,0.1,8.5-2.2
			c-4.4-3.9-10.6-4.1-15.3-7.9c4.5-2.6,8.9-3.6,13.6-3.6c3.6,0,7.3,0.4,10.9-0.8c2.4-0.8,3.2-1.8,1.4-4.3c-3.1-4-2.7-5,2.2-6.1
			c6.9-1.6,13.2-4.6,19.2-8.3c-0.7-2-4.3-0.3-3.8-3c0.3-1.8,2.5-2,4-2.6c1.4-0.6,2.8-1.1,4.1-1.8c1.9-1,2.2-2.8,1.8-4.8
			c-0.3-2-2-2-3.5-2.1c-3.8-0.3-7.6-0.5-11.5-0.7c-0.9-0.1-2.2,0.2-2.5-1c-0.3-1.1,0.7-1.8,1.5-2.4c1.7-1.3,3.5-2.6,5.3-3.7
			c7.3-4.7,16.2-7.9,17.5-18.8c5.8,14.5,18,21.3,30.7,27.1c-0.4,0.8-0.4,1.1-0.7,1.3c-1.4,1-4.3-0.8-4.5,1.8
			c-0.1,2.1,2.5,2.2,4.2,2.9c2.1,0.9,6.1,0.4,3.3,4.9c-1.1,1.7,1.2,2,2.3,2.5c4.8,1.9,9.6,3.8,14.4,5.7c1.5,0.6,3.6,0.8,3.2,3
			c-0.3,2-2.1,1.6-3.6,1.8c-1.1,0.1-2.3,0.3-3.4,0.7c-3.6,1.2-3.6,3.2-1,5.4c3,2.6,6.8,3.3,10.5,4.4c1.6,0.5,4.4,0.3,4.1,2.6
			c-0.2,1.7-2.7,1.5-4.3,1.5c-3.8,0-7.6-0.4-6.1,5.6c0.6,2.3-1.8,4.2-3.2,6c-2.4,2.9-1.6,4.9,1.8,5.9c5.1,1.5,9.2,3.8,9.6,10
			c0.1,1.9,2.2,2.3,3.7,2.9c9.5,3.8,19.2,6.7,29.4,7.4c1.1,0.1,2.3,0,3.1,0.9c-0.1,0.5-0.1,0.9-0.3,1.1c-5.8,5.4-5.8,5.4-1.3,12.2
			c5.7,8.6,12.6,15.5,23.6,16.7c0.8,0.1,1.8,0.1,2.1,1c0.4,1.4-0.9,1.6-1.8,2c-3.4,1.5-6.4,3.3-8.8,6.3c-1.8,2.3-5,0.9-7.6,0.9
			c-2.9,0.1-6.2-1.1-6.8,3.6c-0.2,1.3-1.8,2-3.1,2.3c-5.5,1.6-10.4,5.4-16.7,4.4c-0.9-0.2-2.2-0.1-2.4,1.1c-0.3,1.2,0.9,1.6,1.7,2.1
			c1.7,1.1,3.4,2.1,5,3.3c1.2,0.9,2.2,1.8,2.1,3.6c0,7.4,2.4,11,9.2,13.5c4.5,1.6,9.3,2.6,13.9,4c4.3,1.3,7.9,3.3,9.5,8
			c1.4,3.9,5.7,3.6,8.6,5.3c1.5,0.9,4.6,0.7,3.3,3.8c-1.2,2.9-3.2,3.4-6,1.7c-3.2-1.9-6.4-1.4-10.1-0.8c-6.5,1.1-13.1,0.2-17.9,6.8
			c-2.2,3-7.9,1.3-12,1.5c-1.5,0.1-3.3-0.3-4.1,1.2c-0.9,1.7,0.9,2.6,1.7,3.8c0.5,0.8,1.2,1.6,1.8,2.4c1.6,2.5,1.8,4.1-1.9,4.8
			c-6.1,1.2-6,1.4-2.1,6.4c0.7,0.9,1.4,1.9,2,2.9c2.4,4.4,1.5,7.1-2.9,9.3c-1,0.5-2.5,0.6-2.7,1.9c-0.2,1.6,1.5,2.1,2.6,2.6
			c5.3,2.4,10.7,3.4,16.3,0.7c4.1-2,5.5-1.2,6.1,3.6c0.4,3,0.4,6,2.7,8.4c2.8,2.9,5.6,2.7,6.8-1.1c1.8-5.5,4.9-6.5,10.2-5.6
			c4.7,0.8,9.6,0.6,14.4-0.2c1.8-0.3,3.7-0.7,2.7,2.2c-1,2.6,0.6,3.2,2.6,3.7c3.7,0.9,7.4,1.8,11.1,2.8c8.2,2.1,10.6,8,6.6,15.4
			c-1.8,3.2,0,6.5,1.6,9.4c1.3,2.4,3.3,4,6.5,3.6c5.1-0.7,10.3-1,15.4-1.4c4.8-0.4,6.2,0.9,4.6,5.3c-1.9,5.1-0.4,7.8,4.6,9.3
			c3.3,1,4.8,3.4,4.3,6.9c-0.4,3.1,0.6,5.5,3.1,7.4c5,3.8,7,3.4,9.9-2.3c4.2-8.4,8.6-16.6,16.5-22.2c1.8-1.2,3.6-2.3,5.5-3.4
			c2.6-1.4,4.6-1.6,4,2.4c-0.5,3.4,0.8,5.5,4.2,6.2c1.5,0.3,2.8,1.1,3.8,2.3c1.5,1.9,3.2,2,5.3,0.9c3.3-1.9,5.7-1.3,8,2
			c2.2,3.2,5.7,5.1,8.7,7.5c1.5,1.2,4,2,3.8,4.3c-0.2,2.2-3.2,1-4.6,2.4c1.9,2.3,3.6,2.8,5.3-0.2c3.7-6.3,7.3-12.7,11.2-18.9
			c3.3-5.2,4.4-5.2,8.6-0.9c2.2,2.3,4.6,4.4,6.7,6.7c2.6,2.9,4.4,6,1.1,9.7c-1.6,1.8-0.8,3.4,0.8,4.7c1.8,1.5,3.6,3,5.4,4.5
			c2.5,2.2,3.9,4.7,1.1,7.7c-1.4,1.5-1.4,3.5-0.3,4.5c2.3,2.1-0.2,6.7,4.3,7.5c2.1,0.4,2.6-0.1,2.5-2.2c-0.2-2.8-2.6-6.1,2.1-7.9
			c1.1-0.4-0.6-2.6-1-4c-2.2-7.7-1.5-8.7,6.2-10.4c3.3-0.7,6.9-0.6,10.4-3.1c-3.7-1.3-6.8-2-7.9-6.2c-0.5-1.8-4-1.8-6.3-2.1
			c-1-0.1-2.3,0.2-2.6-0.9c-0.4-1.4,0.9-2,1.9-2.6c2.9-1.8,6.1-2.4,9.4-3.2c3.9-0.9,8.3-1.1,11.4-4.5c-8.7-2.1-16.4-7.3-25.7-6.1
			c-2,0.2-3.3-0.7-1.7-3.1c1.6-2.4,3-4.3,6.1-5.4c6.3-2.1,12-5.8,18-8.6c3.1-1.4,5.7-5.7,8.3-8.9c1.7-2.2-0.8-2.6-2.4-3
			c-3.6-0.7-3.5-2.4-1.4-4.8c3.9-4.4,7.8-8.8,15.3-8.8c-3.2-2.4-2.1-4.5-0.8-6.6c0.1-0.1,0.2-0.3,0.3-0.4c4-5.1,7.9-12.2,14.3-12.2
			c6,0,10.1,6.9,15,10.8c0.4,0.4,0.6,1.1,0.9,1.6c-4.4,1.7-1.3,6.1-3.2,8.7c-2.7,3.7-1.1,6.6,1.6,9.2c2.3,2.3,5.2,3.6,8.2,4.7
			c6.3,2.4,11.6,6.3,17.6,9.9c-3.7,2.8-8,0.7-11.5,2.1c0.8,5.9,3.3,10.1,8.9,12.6c2.9,1.3,4.7,4-0.6,5.3c-3,0.7-1.7,2.4-0.7,4.1
			c3,5.3,2.6,6.1-3.3,7c-3.5,0.5-7,0.6-10.4,1.2c-1.8,0.3-4,0.4-5.5,3c7.4,2.3,14.8,4.1,21.9,6.9c2,0.8,4.6-0.3,5.7-2.3
			c1.3-2.4-1.5-2.9-2.7-4c-2.3-2-2.1-3.6,0.5-5c1.6-0.8,3.3-1.5,5.1-2.1c3.2-1.1,5.6-2.5,3.1-6.4c-1.1-1.7-0.3-3.2,1.1-4.4
			c3.9-3.3,7.9-6.6,11.9-9.9c2-1.6,3.4-1.5,3.6,1.3c0.4,4.3,2.3,8,4.9,11.3c1.6,2.1,1.9,3.4-0.9,5c-4.5,2.6-4,7.9-5.7,12.1
			c-0.2,0.5,0.5,1.8,1.1,2.1c3.8,1.6,4.1,5.3,5.4,9c6.5-6.4,13.1-11.9,20.4-17.3c-3.1-2.2-5.9-0.7-8.5-0.5c-3,0.3-4.8-0.3-3.8-3.7
			c0.8-2.6-0.5-4.3-2-5.8c-3.3-3.2-1.7-5.5,1-7.8c4.3-3.6,9.5-5.6,14.2-8.4c1.1-0.7,2.2-1.5,3.1-2.1c-6.1-7.8,2.2-11.5,4.9-16.7
			c-0.7-0.3-1.1-0.7-1.5-0.7c-6.8-0.8-6.8-0.8-3.3-6.4c1.4-2.2,0.2-2.9-1.6-2.6c-3.8,0.6-7.5,1.5-11.2,2.3c-3.2,0.8-4.9,0.1-4.2-3.7
			c0.6-3.1,0-5.7-3.2-7.1c-3-1.3-1.9-3-0.3-4.6c1.7-1.7,3.8-2.7,5.9-3.6c2.3-1,4.6-1.9,6.8-3.1c1.4-0.8,3.4-1.7,3-3.5
			c-0.5-1.9-2.5-0.9-3.9-1c-1.6-0.1-3.8,0.7-4.3-1.4c-0.6-2,1.2-3.4,2.8-4.3c4.4-2.5,9.6-4,12.5-8.7c0.7-1.1,2-2.1,1.4-3.5
			c-0.6-1.5-2.3-1.1-3.5-1.2c-1.2-0.1-2.3,0-3.5,0c-6.5-0.3-7.3-1.4-5-7.3c-0.7,0-1.4,0-2,0c-1.7,0.1-3.9,2.3-4.9,0.4
			c-0.9-1.8,0.8-4.1,2.2-5.8c1.3-1.7,3.3-2.2,5.2-2.7c5.4-1.6,10.9-3.2,16.3-4.8c0.9-0.3,2.1-0.6,2.2-1.8c0.1-1.6-1.4-1.6-2.4-2
			c-2.5-1.1-7.3-0.2-7.4-2.7c-0.2-3.2,4.8-3.1,7.2-5c1.4-1.1,3-2.1,4.3-3.3c1.1-1,2.7-2,2.2-3.6c-0.5-1.6-2.3-0.9-3.5-1
			c-2.6-0.2-2.9-1.2-1.3-3.1c0.8-1,1.6-2.2,2.6-3c6.7-5.8,8.7-14.2,12.2-21.7c0.7-1.5,1.3-3.1,2.3-4.4c1.2-1.5,2.6-1.7,3.2,0.6
			c2.2,8.9,8.9,14.2,15.4,19.7c2.5,2.1,5,4.2,8.1,6.8c-4.4,1.4-7.8-1.2-10.6-0.8c1.6,15.5,12.7,21,26.2,23.7c-1.4,3-3.6,1.4-4.8,2.6
			c1.7,5,1.2,5.6-4.1,5.1c-2.3-0.2-4.7-0.7-6.9,0c-1.7,0.5-4.5-0.2-4.5,2.8c0,2.8,0,5.7,3.7,6.8c7,2,14.3,4.6,18.2,10.7
			c4.2,6.7,10,10.2,16.8,13c1.3,0.5,3.4,1.3,3.1,2.8c-0.4,2.2-2.7,1.2-4.2,1.4c-2.5,0.4-5,0.9-7.4,0.7c-7.5-0.5-10.7,4.9-14.2,10
			c-1,1.5-0.5,2.9,1.1,3.8c1.6,0.9,3.3,1.7,4.9,2.4c5.7,2.6,11.6,4.4,14.5,11.1c1.7,4,6.8,5.5,10.4,9.1c-3.1,1.2-5.6,0.6-8,0.7
			c-2.8,0.1-3.7,0.8-1.8,3.5c3.6,5.1,3.6,5.3-2,8.1c-2.5,1.2-3,2.4-1.1,4.5c0.5,0.5,0.9,1,1.4,1.5c5.6,5.9,5.7,6-0.5,10.8
			c-2.5,2-1.6,3.1,0.2,4.5c4.3,3.4,9.1,6.2,12.9,10.2c1.4,1.5,3.5,2.9,1,5.4c-1.4,1.4,0.1,3.2,0.5,4.7c1.2,4.9-0.5,7-5.6,6.5
			c-3.5-0.4-6.9-0.1-10.5,1.2c1.2,2.1,3,1.5,4.5,1.6c4.3,0.4,7.9,2.4,11.7,4.3c4.7,2.4,9.1,2.6,13.5-1c2.9-2.4,6.4-4.2,9-7.1
			c1.5-1.7,2.5-3.7,1.7-6c-0.9-2.6-3.3-1.6-5.2-1.7c-1.5-0.1-3,0.1-4.5-0.3c-4.3-1-5.9-4.3-4-8.3c1.8-3.7,4.6-6.5,8.6-7.9
			c1.6-0.6,4.5-0.8,4.1-2.8c-0.4-2.3-3.3-1.6-5.2-1.6c-3.3,0.1-6.6,0.6-10,0.7c-1.2,0.1-2.9,0.8-3.5-0.8c-0.5-1.3,0.8-2,1.6-2.8
			c1.3-1.2,2.8-2.4-0.1-3.5c-1.7-0.6-4.2-1.2-3.4-3.5c0.8-2.3,1-5.6,3.9-6.6c6.1-2,9.1-7.6,13.8-11.2c1.7-1.3,1.6-2.7-0.4-3.3
			c-4.3-1.2-6.3-3.9-7.5-8.2c-0.7-2.4-3.7-4.1-5.7-6.2c-6.5-6.8-5.9-10.4,2.6-14c1.1-0.5,2.2-0.9,3.2-1.5c0.9-0.5,1.6-1.3,1.4-2.4
			c-0.2-1.1-1.1-1.7-2.1-1.8c-2.1-0.3-4.3-0.4-6.4-0.7c-3.8-0.6-4.3-2.7-2.3-5.6c4.4-6.2,8.9-12.1,18-10.4c3,0.6,8,0.6,8.5-2.1
			c0.6-2.9-4.4-2.8-6.9-4.1c-1.4-0.7-3.3-0.7-4.4-3.2c5.5-1.3,9.9-4.3,13.6-8.5c0.6-0.7,1.7-1.4,1.3-2.5c-0.4-1.1-1.6-0.9-2.6-1
			c-2.4-0.3-5,0.6-7.5-1.3c1.1-2.1,3.3-1.9,5-2.6c1-0.4,2.5-0.7,2.3-2.2c-0.1-1.2-1.3-1.3-2.3-1.6c-8.2-2.5-8.2-2.5-2.9-9.6
			c1.7-2.3,2.4-4.3-0.2-6.4c-2.6-2-1.3-3.7,0.6-5.2c0.4-0.3,0.8-0.7,1.3-0.7c10.1-0.5,14.2-10,21.6-14.6c1.5-0.9,3.4-2.3,2.6-4.4
			c-0.7-1.8-2.9-1.1-4.5-1.6c-2.1-0.6-5.7,0.4-6-2.2c-0.3-2.4,3.2-2.9,5.2-3.9c2.5-1.2,5.3-2.1,7.9-3.1c6.8-2.6,7-2.5,11.1,3.8
			c0.8,1.3,1.6,2.5,2.4,3.8c1.7,2.9,5.9,6-1.5,7.3c-2.7,0.5-2.4,3.2-1.1,5.4c1.6,2.7,4.1,4.3,6.9,5.5c0.9,0.4,2,0.8,2,2
			c0.1,1.5-1.4,1.7-2.4,2.2c-2.1,1-5.9,0.4-5.9,3.4c0,2.5,3.4,3.3,5.6,4.4c6,3.2,12.7,5,18.4,8.9c1.9,1.3,6.3,2.6,1.3,5.8
			c-1.4,0.9-0.2,2.1,0.5,3c3,3.7,0.7,4.6-2.6,4.6c-6.1,0-10.6,2.2-13.1,8c-1.2,2.8-0.8,4.9,1.8,6.4c3.4,2,6.9,4,10.4,5.9
			c2.3,1.3,3.4,2.8,3.1,6c-0.5,4.8,1.3,8.9,6.6,10.3c1,0.3,1.9,0.6,2.8,1c7.8,3.2,8.6,5.2,3.7,12c-2.4,3.3-2.4,6.2-0.4,9.6
			c2.3,4,5.6,7.9,5.3,12.7c-0.2,4.3-1.1,8.7-1.4,13.1c-0.2,3.1-1.8,6.1,0.1,9.6c-2.7-0.6-5.4-1.2-8-1.8c-1.2-0.2-2.8-1.2-3.5,0.6
			c-0.6,1.6,1.1,2.3,2.2,2.9c4.2,2.6,8.5,5.2,12.8,7.8c0.6,0.3,1.3,0.5,2.7,1c-5.6,3.1-10.9,2-15.5,4.9c3.8,2.7,8.1,2.5,11.9,3.6
			c3.3,0.9,8.4,0.6,9.2,3.7c0.8,3.2-4.4,4.1-6.8,6.2c-0.8,0.6-1.8,1-2.5,1.7c-1.2,1.2-4.3,1.6-3.1,3.6c1,1.8,3.3-0.1,5-0.6
			c1.9-0.6,3.7-1.5,5.5-2.4c8.9-4.4,10-7.1,7.1-16.7c-2.1-7-1.9-7.5,5.1-9.2c3-0.7,3.7-2.2,3-5c-1.9-8.3-1-16.9-2.3-25.3
			c-0.1-0.9-0.4-2.2,0.8-2.6c1.1-0.4,1.9,0.6,2.4,1.3c2.1,2.8,4.1,5.6,6.1,8.5c3.7,5.4,7.6,10.6,13.5,13.8c1.9,1.1,2.7,2.8,3.4,4.8
			c1.4,4.3,3.2,8.4,6.2,11.9c2.3,2.7,1,4.2-1.5,5.3c-2.3,1-4.7,1.7-7,2.7c-2.7,1.1-4,2.3-1.1,4.9c2.6,2.3,4.7,5.2,7,7.8
			c0.4,0.5,1.2,1.2,1.1,1.6c-2,6,3.4,5.9,6.3,7.8c1.7,1.1,3.5,1.9,5.4,2.6c1.8,0.8,3.6,1.1,4.2-1.6c0.4-1.7,1.7-2.4,3-3.1
			c1.5-0.8,3-1.6,1.3-3.7c-1.1-1.4-0.3-2.9,0.6-4.1c1.4-2,2.6-3.8,0.2-6.1c-1.7-1.7,0.2-2.7,1.4-3.5c1.9-1.3,4.1-2.3,6.1-3.5
			c1.1-0.7,2.6-1.5,2.3-3c-0.3-1.9-2.1-0.9-3.3-1.2c-0.8-0.2-1.7,0-2.4-1.1c3.7-5.4,9.1-9.7,12.4-15.7c-0.7-0.2-1-0.4-1.3-0.4
			c-2.1-0.2-5.3,1.5-6-0.3c-0.9-2.4,2.1-4.1,3.8-5.8c6.1-6.1,14.3-9.9,18.7-17.8c0.9-1.6,2.6-2,3.6-0.2c2.1,3.6,5,6.7,5.5,11.4
			c0.5,4.4,1.8,9,4.7,12.8c1.8,2.2,3.4,4.2-1,5.3c-2.1,0.5-1.7,1.7-0.4,2.8c1,0.8,2.1,1.6,3.2,2.4c5.4,3.9,5.2,3.8,1.6,8.9
			c-1.4,1.9-2.8,4-3.2,6.6c-0.4,2.7,0.4,4,3,4.7c3.7,1,7.3,2.2,10.9,3.3c3.1,1,6.6,2.6,6.7,5.9c0.1,3.7-0.6,7.7-5.4,9.4
			c-2.5,0.9-6.9,1-6.8,3.9c0,2.3,4.5,1,6.8,2.4c4,2.5,8.6,3.6,7.7,10.6c-0.7,5.4,2.6,10.5,6.1,14.9c0.9,1.2,2.3,2.2,1.2,3.9
			c-3.1,4.6-1.5,9.4-0.4,14c1.2,4.9-0.3,7.7-5.1,9.6c-9.4,3.8-18.8,5.9-29.1,5.9c-454-0.2-907.9-0.1-1361.9-0.1
			c-10,0-24.6-0.5-38-0.9c-2.3-0.1-0.6-32.4-0.6-34.7c0-1,1.1-4.4,0.6-4.6c-5.3-2.4,10.9,7.5,11.9,4.4c4.8-15.5,15.6-6.3,31.5-3.3
			c5.3,1,10.6,3.8,15.8-0.5c0.9-0.7,2.4-1,2.3-2.4c-0.1-1.4-1.6-1.5-2.6-2c-7.1-3-7.1-3-1-7.7C58.5,691.6,59.8,690.3,62,688.5z
			 M555.1,490.9c-7.9-1.4-15.3-1.8-21.4-6.4c-0.7-0.5-1.5-0.7-2.3-0.2c-3.1,2-0.2,6.1-2.9,8.5c-0.7,0.6,1.5,2.1,2.7,3
			C538,501,548.5,496.8,555.1,490.9z"/>
		<path d="M725.3,227.8c0.2,4.4,0.7,8.4,3,11.8c6.3,9.2,11.6,19.1,19.5,27.1c0.7,0.7,1.3,1.6,1.6,2.5c4.5,15.4,17.1,24.2,28.2,34
			c5.1,4.5,11.1,8.1,14.9,13.9c0.5,0.7,0.9,1.4,1.2,2.2c0.9,2.3,3,4.9,1.3,7c-2,2.4-4.7,0.1-6.8-0.8c-10-4.2-19-10.3-28.2-16.1
			c-8.9-5.7-17.9-10.9-27.5-15.3c-8-3.7-12.7-11.5-18.5-17.9c-1-1.1-0.3-2.5-0.1-3.8c1.6-10.4-2.9-19.3-7.3-28
			c-2.4-4.7-8-6.3-12.9-8c-5.6-2-10.9-4-12.2-10.9c-0.3-1.4-1.3-2.8-2.4-3.7c-8.9-8.4-14.6-19-20.6-29.3c-1.8-3-3.6-4.2-7.3-3.2
			c-5.6,1.4-11.6,1.6-17,4c-4.1,1.7-5.5-0.4-6.2-3.8c-1.9-8.5-3.8-16.9-5.6-25.4c-0.3-1.5-0.7-2.9-1-4.4c-0.4-2.1-1.4-4.3-3.2-4.7
			c-2.1-0.5-2.4,2.3-3.3,3.7c-6.2,9.7-12.4,19.4-18.2,29.3c-2.5,4.4-5.1,4.9-9.2,2.6c-6.2-3.5-12.6-6.8-18.9-10.2
			c-8.9-4.7-18.1-6.7-27.9-3.4c-1.1,0.4-2.4,1-3.2-0.1c-0.8-1.1,0.1-2.2,0.7-3.2c2.5-4.3,5.2-8.5,7.7-12.9c1.2-2.1,3.2-2.8,5.2-3.6
			c7-2.8,12.7-7.1,16.6-13.8c1.7-2.9,1.5-5.2-1-7.5c-4.7-4.3-9.1-8.8-13.8-13c-4.5-4.1-5.9-9.1-4.9-14.9c0.7-3.6,0.9-7.3,0.7-10.9
			c-0.2-3.9-2.3-6.2-6.3-6.3c-3.6-0.1-7.2-0.1-10.8,1.2c-9,3.3-18.5,3.9-28,4.6c-6,0.4-11.9,1.4-17.8,2.4
			c-7.7,1.3-13.6,5.7-19.3,10.8c-29.6,26.3-62.7,48-96.1,69c-23.8,15-47.7,29.9-71.3,45.3c-8,5.2-17.2,8.6-26,12.5
			c-3.6,1.6-7.5,1.2-11.2-0.1c-1.4-0.5-3.1-1.3-4,0.5c-0.9,1.9,0.9,2.7,2,3.5c11.6,8.1,24,14.4,38.2,16.6c2.2,0.3,4.2,0.9,5.9,2.3
			c7.8,6.3,16.4,11.3,26.2,15.2c-2.4,2.2-4.7,1.9-6.9,2c-6.6,0.3-13.3-0.1-19.9,0.9c-7.7,1.2-14,4.2-17.2,11.8
			c-1.6,3.9-4.1,3.1-6.9,1.5c-9.7-5.8-19.4-11.7-29.2-17.4c-7.5-4.4-15.4-8-23.9-10c-6.1-1.5-9.6-6.4-14-10.1
			c-11.6-10-23.6-19.5-37.3-26.7c-3.6-1.9-6.1-1.5-9.3,1.1c-26.7,22.4-53.5,44.6-80.3,66.8c-2.6,2.2-5,5.1-8.9,5.1
			c-1.2,0-2.9,0.7-3.5-0.9c-0.4-1.2,1-2,1.8-2.8c8.1-8.4,16.4-16.6,24.4-25c24.2-25.2,47.2-51.7,74-74.4c5.3-4.5,7.6-5.5,12.5-0.8
			c10.4,10,22.9,16.1,35.9,21.7c5.7,2.5,10.8,6.6,15.9,10.3c2.4,1.7,4.7,2.4,7.4,1.1c6.8-3.3,13.6-4.8,21.5-4.2
			c8,0.6,15.7-3.8,22.9-7.8c4.6-2.6,9.2-5.4,13.5-8.5c13.3-9.5,26.6-18.7,41.5-25.7c24.2-11.5,45.1-28.3,67.1-43.4
			c16.8-11.5,33.3-23.4,47.8-37.8c8-8,17.7-9.8,28-11.1c12.1-1.5,24-3.5,36.1-5.2c4.6-0.6,7.9-3.2,11.3-6
			c5.9-4.9,11.5-10.2,18.5-13.5c3.8-1.7,6.9-1.9,9.7,1.8c2.4,3.2,6.4,4.2,9.9,5.6c4.5,1.7,8.2,4.3,11.3,7.9
			c6.9,7.7,14,15.2,20.9,22.9c13.7,15.3,30,25.1,51.1,25.4c0.5,0,1,0.1,1.5,0.1c9.7,0.2,17.2,4,22.3,12.5c2.3,3.9,5.6,7,9,10
			c3.9,3.6,8.6,5.4,13.8,4c3.5-0.9,5.2,0.4,6.8,3.2c3.8,6.7,8.9,12.1,16.5,14.5c1.9,0.6,3.1,1.9,3.9,3.6c3.4,7.5,9.7,11.6,17.1,14.3
			c7,2.6,14.6,3.7,21.4,6.8c1.4,0.6,2.8,0.5,3.7-0.5c7.6-7.5,17.6-6.6,27-7.6c2-0.2,4-0.6,5.9-0.8c6.4-0.7,12.4,0.1,16.9,5.3
			c1.7,2,3,2.1,4.9,0.1c16.1-17.3,36.6-27.5,58.1-36.1c4.8-1.9,9.6-3.9,14.4-5.8c9.7-3.7,19-7.8,26.9-14.8
			c6.9-6.1,15.4-9.9,23.7-13.7c13.9-6.5,27.6-13.2,39.7-22.9c9.8-7.9,17.6-6.1,24.3,4.5c0.4,0.7,0.8,1.5,0.9,2.3
			c1.3,8.9,6.8,14.9,13.7,20.1c4.1,3.1,8.5,5.9,13.2,8c9,4,15.6,10.7,21.5,18.2c4,5.1,7.7,10.4,11.8,15.5
			c4.8,6.1,10.6,10.9,17.8,14.1c5.7,2.5,9.6,7.6,14.2,11.6c11.1,9.6,22.1,19.3,35.3,26.1c5.7,2.9,11.6,5,17.8,6.6
			c4.8,1.2,9.4,1.3,14.2,0c11.4-3,23-5.5,34.5-8.4c3.5-0.9,6.4-0.5,9.5,1.2c4.2,2.3,8.5,5.1,13.1,6.2c15.1,3.7,25.6,13.4,34.5,25.4
			c3,4,6.9,6.6,11.2,8.9c11.1,5.8,22.4,11.1,32.6,18.5c1.9,1.4,4,2.5,4.6,5.1c3.3,14.2,12.7,24.1,24.1,32.1
			c13.4,9.4,23.8,21.7,35.6,32.7c3.9,3.6,7.3,7.9,7.2,13.8c0,1.1,0.4,2.6-0.8,3.2c-1.3,0.7-2.1-0.7-2.9-1.4
			c-10.1-8.9-19.8-18.4-30.6-26.5c-8.8-6.6-17.3-13.5-28.2-16.7c-4.9-1.5-8.2-5.5-11.1-9.7c-2.7-4-5.3-8.1-8.1-12
			c-4.3-5.9-9.7-8.9-17.5-8.4c-12.6,0.8-25.3-0.4-37.9,1.9c-2.9,0.5-3.9-1.1-4.6-3.4c-2-6.9-4.4-13.6-8.8-19.4
			c-1.5-2-0.5-3.8,0.4-5.6c1.8-3.4,3.9-6.6,5.5-10.1c2.2-4.8,1.4-6.8-3.6-8.2c-10.3-2.8-20.5-5-31,0.6c-7.6,4.1-16.3,5.6-25.2,5.3
			c-7.2-0.2-13.8-1.9-19.8-6.1c-2.2-1.6-4.7-2.2-7.3-3c-9.1-2.8-16.1,0.5-22.3,6.9c-7.3,7.5-15.9,12.4-26.4,13.9
			c-3.3,0.5-6.1,0.5-8.9-1.6c-3.7-2.8-7.8-5.2-11.5-8c-2.2-1.6-4-2-6.2-0.1c-3.5,3.1-7.6,5.4-12,7.1c-2.7,1-3.5,2.6-2.5,5.4
			c2.8,8.1,3.7,16.6,3.1,25.1c-0.2,2.3,0.6,4.3,2.2,5.9c8.5,8.6,12.6,19,12.5,31c-0.1,6,2.9,10.4,6.4,14.8
			c4.8,6.2,10.1,12.1,11.3,20.3c0.2,1.2,0.4,2.3,0.4,3.5c0,1-0.1,2.2-1.2,2.4c-0.6,0.1-1.5-0.6-2-1.2c-9.4-10.5-21.5-17.3-33.2-24.6
			c-11.5-7.1-21.4-15.6-28.3-27.6c-4.8-8.5-12.3-14.8-19.4-21.4c-6.5-6-12.5-12.5-16.7-20.4c-1.5-2.8-2.9-5.8-3-8.9
			c-0.8-14-7.8-25-17-34.7c-5.5-5.8-8.9-12.2-10.8-19.8c-2.3-8.9-5.1-17.6-7.9-26.3c-0.9-2.9-0.9-5.4,0.8-8.1
			c6.1-9.9,13.5-19.1,18.3-29.8c1.3-2.8,2.8-1.5,4.1,0c3.4,3.7,6.7,7.4,10.2,11c1.7,1.8,3.8,3.3,5.8,4.8c2.8,2.1,4.5,1.9,4.4-2.2
			c-0.1-9-1.6-17.9-3-26.8c-0.5-3-2.3-3.9-4.9-3.6c-7.1,0.9-13.7,0.3-20.5-2.6c-4.1-1.7-8.7-0.4-12.5,1.9
			c-37.3,22.5-79.2,37.1-113.2,65.3c-5,4.1-10.7,7.3-16.2,10.8c-5.5,3.4-11.1,3.9-16.9,0.2c-6.5-4.1-13.8-2.9-20.9-2.4
			c-1.5,0.1-2.1,1.5-2.8,2.6c-0.9,1.6-1.8,3.2-2.7,4.8c-4.2,7.4-4.2,7.4-11.6,3.5c-1.2-0.7-2.5-2.2-4-0.8c-1.2,1.2-1.6,2.9-1.3,4.7
			c0.5,3.5,2.7,6.2,5.5,8c8.2,5.4,14.2,13,20.5,20.3c1.7,2,3.7,3.2,6.1,4.2c16.8,7.4,33.5,14.8,50.3,22.2c6,2.6,6.5,3.1,3.1,8.2
			c-4.2,6.4-2.9,11.8,1.2,17.3c2.7,3.7,4.7,7.7,4.3,12.5c-0.1,1.3,0.1,2.9-1.4,3.5c-1.6,0.6-2.3-1-3.1-1.9
			c-5.8-6.9-11.6-13.7-17.3-20.7c-2.2-2.7-4.7-4.6-8.1-5.5c-3.7-1-7.3-2.5-11-3.4c-9.6-2.4-17.8-7.3-25.2-13.7
			c-6.7-5.7-14.1-9.3-23.4-7c-4.7,1.1-8.6-0.6-12.1-4.1c-9.3-9.5-19-18.7-28.6-28C728.8,230,727.8,228.5,725.3,227.8z"/>
	</g>
</g>
</svg>
